<svg width="33" height="33" viewBox="0 0 33 33" fill="none" xmlns="http://www.w3.org/2000/svg">
<path d="M10.4111 17.0561C10.4111 18.3847 10.9389 19.6588 11.8783 20.5982C12.8177 21.5377 14.0919 22.0654 15.4204 22.0654C16.7489 22.0654 18.0231 21.5377 18.9625 20.5982C19.9019 19.6588 20.4297 18.3847 20.4297 17.0561C20.4297 15.7276 19.9019 14.4535 18.9625 13.5141C18.0231 12.5746 16.7489 12.0469 15.4204 12.0469C14.0919 12.0469 12.8177 12.5746 11.8783 13.5141C10.9389 14.4535 10.4111 15.7276 10.4111 17.0561Z" stroke="#61637A" stroke-width="3.06633" stroke-linecap="round" stroke-linejoin="round"/>
<path d="M22.6567 27.6311C20.2961 29.25 17.4614 30.0316 14.6047 29.8515C11.748 29.6713 9.03393 28.5397 6.89541 26.6371C4.75689 24.7345 3.31711 22.1705 2.80574 19.3542C2.29437 16.5379 2.74086 13.6315 4.074 11.0985C5.40713 8.56554 7.55011 6.55198 10.1611 5.37901C12.7721 4.20605 15.7007 3.94125 18.4797 4.62684C21.2588 5.31244 23.7282 6.90895 25.494 9.16169C27.2599 11.4144 28.2205 14.1937 28.2226 17.056V18.1692C28.2226 19.2025 27.8121 20.1935 27.0815 20.9241C26.3508 21.6548 25.3598 22.0653 24.3265 22.0653C23.2932 22.0653 22.3022 21.6548 21.5715 20.9241C20.8409 20.1935 20.4304 19.2025 20.4304 18.1692V17.056" stroke="#61637A" stroke-width="3.06633" stroke-linecap="round" stroke-linejoin="round"/>
</svg>
