<svg width="474" height="107" viewBox="0 0 474 107" fill="none" xmlns="http://www.w3.org/2000/svg">
<path d="M153.528 36.9786C156.851 36.9786 159.721 37.5673 162.144 38.7447C164.568 39.9221 166.571 41.5102 168.164 43.5182C169.757 45.5262 170.929 47.8764 171.692 50.5781C172.454 53.2797 172.832 56.1822 172.832 59.2945C172.832 64.0681 171.952 68.586 170.186 72.8393C168.419 77.0971 166.014 80.7982 162.971 83.9471C159.927 87.096 156.326 89.5877 152.178 91.4177C148.025 93.2523 143.525 94.1696 138.683 94.1696C138.062 94.1696 136.972 94.1513 135.416 94.1194C133.859 94.0829 132.075 93.9277 130.072 93.6539C128.064 93.3755 125.937 92.9602 123.687 92.408C121.437 91.8558 119.311 91.0937 117.303 90.1262L135.26 14.6671L151.352 12.1754L144.917 38.9546C146.3 38.3294 147.682 37.8502 149.07 37.4988C150.448 37.152 151.936 36.9786 153.528 36.9786ZM140.034 81.4052C142.457 81.4052 144.739 80.821 146.884 79.6391C149.029 78.4617 150.882 76.8872 152.438 74.9157C153.994 72.9443 155.222 70.7127 156.121 68.221C157.02 65.7292 157.471 63.1325 157.471 60.4354C157.471 57.1131 156.915 54.521 155.81 52.65C154.701 50.7834 152.661 49.8479 149.686 49.8479C148.714 49.8479 147.454 50.0213 145.898 50.3682C144.342 50.715 142.941 51.4406 141.695 52.5496L134.845 80.9899C135.26 81.0583 135.621 81.1268 135.936 81.1998C136.251 81.2728 136.575 81.323 136.922 81.355C137.268 81.3915 137.684 81.4052 138.167 81.4052C138.651 81.4052 139.272 81.4052 140.034 81.4052Z" fill="black"/>
<path d="M197.54 93.7544C192.625 93.7544 188.769 93.111 185.967 91.8332C183.164 90.5553 181.157 88.8075 179.947 86.5941C178.738 84.3808 178.149 81.8389 178.181 78.9638C178.218 76.0933 178.615 73.0311 179.377 69.7773L192.561 14.6627L208.648 12.171L194.218 71.9587C193.939 73.2046 193.784 74.3455 193.752 75.386C193.716 76.4265 193.907 77.3437 194.322 78.1378C194.738 78.9364 195.445 79.5753 196.449 80.0591C197.453 80.5428 198.854 80.8531 200.652 80.9946L197.54 93.7544Z" fill="black"/>
<path d="M220.891 92.7185H205.53L218.505 38.1196H233.971L220.891 92.7185Z" fill="black"/>
<path d="M245.384 40.6113C246.562 40.2645 247.858 39.8674 249.277 39.4156C250.696 38.9684 252.289 38.5531 254.051 38.1698C255.817 37.791 257.788 37.4807 259.97 37.2342C262.151 36.9924 264.625 36.8691 267.39 36.8691C275.554 36.8691 281.158 39.224 284.207 43.929C287.251 48.6341 287.771 55.0688 285.763 63.233L278.703 92.7093H263.237L270.087 63.8537C270.503 62.0556 270.831 60.3078 271.073 58.6147C271.315 56.917 271.297 55.4339 271.023 54.1515C270.744 52.8737 270.105 51.8332 269.101 51.0391C268.097 50.245 266.56 49.8434 264.483 49.8434C262.475 49.8434 260.435 50.0534 258.359 50.4687L248.291 92.7139H232.825L245.384 40.6113Z" fill="black"/>
<path d="M311.297 57.8433C315.45 54.521 319.356 51.1303 323.025 47.6711C326.69 44.2119 329.839 41.0265 332.472 38.124H349.91C346.035 42.4138 342.005 46.6169 337.816 50.7332C333.627 54.8496 328.835 59.2261 323.441 63.8627C324.892 65.6608 326.361 67.7372 327.854 70.092C329.341 72.4468 330.761 74.902 332.107 77.4622C333.458 80.0224 334.704 82.6191 335.845 85.2477C336.985 87.8764 337.939 90.3681 338.697 92.7229H321.469C320.844 90.9248 320.068 88.9534 319.133 86.8085C318.197 84.6636 317.161 82.5369 316.02 80.424C314.879 78.3156 313.684 76.2574 312.438 74.2495C311.192 72.2415 309.946 70.4434 308.7 68.8507L302.886 92.7229H287.525L306.209 14.6671L322.295 12.1754L311.297 57.8433Z" fill="black"/>
<path d="M239.415 21.6317C239.415 23.0692 239.141 24.4063 238.594 25.6522C238.046 26.8981 237.297 27.9842 236.357 28.9106C235.413 29.837 234.308 30.5718 233.04 31.1194C231.776 31.667 230.425 31.9408 228.987 31.9408C227.55 31.9408 226.199 31.667 224.935 31.1194C223.671 30.5718 222.575 29.837 221.649 28.9106C220.722 27.9842 219.988 26.8981 219.44 25.6522C218.892 24.4063 218.619 23.0646 218.619 21.6317C218.619 20.2352 218.892 18.9026 219.44 17.6385C219.988 16.3744 220.722 15.2791 221.649 14.3527C222.575 13.4263 223.671 12.6916 224.935 12.144C226.199 11.5963 227.55 11.3225 228.987 11.3225C230.425 11.3225 231.771 11.5963 233.04 12.144C234.304 12.6916 235.408 13.4263 236.357 14.3527C237.302 15.2791 238.046 16.3744 238.594 17.6385C239.141 18.9026 239.415 20.2352 239.415 21.6317Z" fill="black"/>
<path d="M452.75 48.8931C453.98 48.8931 455.19 48.7741 456.381 48.536C457.611 48.2582 458.702 47.8217 459.654 47.2265C460.607 46.6313 461.38 45.8576 461.976 44.9053C462.571 43.9133 462.868 42.703 462.868 41.2745C462.868 40.2825 462.67 39.4294 462.273 38.7152C461.916 37.9613 461.4 37.3065 460.726 36.751C460.091 36.1558 459.317 35.6201 458.404 35.144C457.531 34.6281 456.559 34.0925 455.488 33.5369C454.575 33.0608 453.643 32.5449 452.69 31.9894C451.778 31.4339 450.945 30.7593 450.191 29.9657C449.476 29.1325 448.881 28.1603 448.405 27.0493C447.969 25.9382 447.75 24.6089 447.75 23.0614C447.75 21.2758 448.088 19.6291 448.762 18.1213C449.476 16.6134 450.508 15.3238 451.857 14.2525C453.206 13.1414 454.853 12.2883 456.797 11.6931C458.781 11.0979 461.043 10.8003 463.583 10.8003C464.773 10.8003 465.904 10.8995 466.975 11.0979C468.047 11.2566 469.019 11.4749 469.892 11.7526C470.804 12.0304 471.598 12.328 472.273 12.6454C472.947 12.9232 473.443 13.1811 473.761 13.4192L471.082 17.9427C470.408 17.3872 469.316 16.8912 467.809 16.4547C466.34 15.9785 464.594 15.7405 462.571 15.7405C461.301 15.7405 460.111 15.8793 459 16.1571C457.928 16.3952 456.996 16.792 456.202 17.3475C455.409 17.903 454.774 18.6173 454.298 19.4902C453.821 20.3235 453.583 21.3353 453.583 22.5257C453.583 23.5574 453.742 24.4304 454.059 25.1446C454.377 25.8192 454.813 26.4342 455.369 26.9897C455.924 27.5056 456.599 27.9817 457.393 28.4182C458.226 28.8547 459.119 29.311 460.071 29.7872C461.261 30.3824 462.372 30.9974 463.404 31.6323C464.475 32.2275 465.408 32.9417 466.202 33.775C466.995 34.6083 467.61 35.5805 468.047 36.6915C468.523 37.8025 468.761 39.1517 468.761 40.7389C468.761 42.9213 468.324 44.8457 467.451 46.5123C466.618 48.1392 465.448 49.5081 463.94 50.6192C462.472 51.6905 460.706 52.504 458.642 53.0595C456.619 53.615 454.417 53.8928 452.036 53.8928C450.449 53.8928 449 53.7737 447.691 53.5357C446.421 53.3373 445.29 53.0793 444.298 52.7619C443.346 52.4445 442.532 52.127 441.858 51.8096C441.183 51.4525 440.667 51.135 440.31 50.8573L442.989 46.1552C443.743 46.671 444.933 47.2662 446.56 47.9408C448.187 48.5757 450.25 48.8931 452.75 48.8931Z" fill="black"/>
<path d="M425.355 10.8003C427.538 10.8003 429.542 11.1376 431.367 11.8121C433.232 12.447 434.819 13.4192 436.129 14.7286C437.478 16.0381 438.509 17.6848 439.224 19.6688C439.978 21.6131 440.354 23.8947 440.354 26.5136C440.354 29.807 439.839 33.0806 438.807 36.3344C437.815 39.5881 436.327 42.5245 434.343 45.1433C432.359 47.7225 429.879 49.8256 426.903 51.4525C423.927 53.0793 420.455 53.8928 416.487 53.8928C414.265 53.8928 412.241 53.5753 410.416 52.9405C408.591 52.2659 407.003 51.2739 405.654 49.9645C404.345 48.655 403.313 47.0281 402.559 45.0838C401.845 43.0998 401.488 40.7984 401.488 38.1795C401.488 34.9257 401.984 31.672 402.976 28.4182C403.968 25.1248 405.456 22.1885 407.44 19.6093C409.464 16.9904 411.963 14.8675 414.939 13.2406C417.915 11.6137 421.387 10.8003 425.355 10.8003ZM417.082 48.8931C419.741 48.8931 422.141 48.2582 424.284 46.9885C426.427 45.679 428.232 43.9926 429.7 41.9293C431.208 39.8659 432.359 37.5446 433.153 34.9654C433.946 32.3862 434.343 29.807 434.343 27.2278C434.343 23.6963 433.569 20.9187 432.022 18.895C430.514 16.8317 428.093 15.8 424.76 15.8C422.062 15.8 419.642 16.4547 417.499 17.7641C415.396 19.0339 413.59 20.7005 412.082 22.7638C410.614 24.8272 409.483 27.1485 408.69 29.7277C407.896 32.3069 407.499 34.8861 407.499 37.4653C407.499 40.9968 408.253 43.7942 409.761 45.8576C411.309 47.8813 413.749 48.8931 417.082 48.8931Z" fill="black"/>
<path d="M384.177 11.3359C388.978 11.3359 392.589 12.2486 395.01 14.0739C397.47 15.8991 398.7 18.5577 398.7 22.0495C398.7 24.7478 398.184 27.0889 397.152 29.0729C396.16 31.0172 394.732 32.6243 392.867 33.894C391.002 35.1638 388.76 36.1161 386.141 36.751C383.522 37.3462 380.606 37.6438 377.392 37.6438H373.285L369.594 52.9999H363.821L373.582 12.2883C375.249 11.8915 377.015 11.6335 378.88 11.5145C380.745 11.3955 382.51 11.3359 384.177 11.3359ZM383.463 16.2166C380.645 16.2166 378.939 16.2959 378.344 16.4547L374.416 32.8227H378.165C379.832 32.8227 381.538 32.6838 383.284 32.406C385.03 32.0886 386.597 31.5529 387.986 30.799C389.375 30.0451 390.506 29.0134 391.379 27.7039C392.291 26.3548 392.748 24.6287 392.748 22.5257C392.748 20.2639 391.914 18.6569 390.248 17.7046C388.581 16.7126 386.32 16.2166 383.463 16.2166Z" fill="black"/>
<path d="M65.8994 1.60748C65.8511 1.59479 65.8029 1.58209 65.7546 1.56939C61.4705 0.507894 57.1864 0 52.9633 0H52.943C29.171 0.0101579 7.54996 16.1307 1.56951 40.2455C-5.47244 68.652 11.8442 97.3887 40.2456 104.431C44.5297 105.492 48.8163 106 53.042 106C76.8216 106 98.4503 89.8744 104.431 65.7545C111.463 37.4089 94.2271 8.718 65.8994 1.60748ZM100.271 64.726C94.8696 86.5045 75.4478 101.716 53.042 101.716C49.1008 101.716 45.1417 101.231 41.2792 100.271C28.6529 97.1398 18.0024 89.2801 11.2881 78.1369C4.5737 66.9937 2.60053 53.9053 5.7317 41.2791C11.1306 19.5057 30.5753 4.29678 52.976 4.28662C56.9096 4.28662 60.8636 4.7742 64.7566 5.7392L64.8048 5.7519L64.8556 5.7646C90.8319 12.2834 106.719 38.732 100.271 64.726Z" fill="url(#paint0_linear_6230_58)"/>
<path d="M76.9501 64.1787H29.0311C28.9672 64.1787 28.9033 64.2426 28.9033 64.3065V69.9929C28.9033 71.718 30.3089 73.1875 32.0979 73.1875H73.8194C75.5445 73.1875 77.014 71.7819 77.014 69.9929L76.9501 64.1787C77.014 64.2426 77.014 64.1787 76.9501 64.1787ZM56.1852 70.5679H49.5404C48.7098 70.5679 48.007 69.8651 48.007 69.0345C48.007 68.2039 48.7098 67.5011 49.5404 67.5011H56.1852C57.0158 67.5011 57.7186 68.2039 57.7186 69.0345C57.7186 69.8651 57.0158 70.5679 56.1852 70.5679Z" fill="black"/>
<path d="M76.3751 59.1313L71.3915 49.4836V39.8359C71.3915 38.3025 70.1137 37.0247 68.5803 37.0247H66.1524V34.0217H67.8775C69.9859 34.0217 71.711 32.2966 71.711 30.1882V28.9743C71.711 26.8658 69.9859 25.1407 67.8775 25.1407H60.5299C58.4214 25.1407 56.6964 26.8658 56.6964 28.9743V30.1882C56.6964 32.2966 58.4214 34.0217 60.5299 34.0217H62.3189V37.0247H53.1823H52.9267H37.5927C36.0593 37.0247 34.7814 38.3025 34.7814 39.8359V49.4836L29.7978 59.1313C28.9033 60.6008 28.3922 61.9425 30.6923 61.9425H52.9906H53.1823H75.4806C77.7807 61.9425 77.2057 60.6008 76.3751 59.1313ZM45.7708 55.5533C45.7708 56.7034 44.8763 57.5979 43.7263 57.5979H42.0651C40.915 57.5979 40.0206 56.7034 40.0206 55.5533C40.0206 54.4033 40.915 53.5088 42.0651 53.5088H43.7263C44.8763 53.5088 45.7708 54.4033 45.7708 55.5533ZM55.9297 55.5533C55.9297 56.7034 55.0352 57.5979 53.8851 57.5979H52.2239C51.0739 57.5979 50.1794 56.7034 50.1794 55.5533C50.1794 54.4033 51.0739 53.5088 52.2239 53.5088H53.8851C54.9713 53.5088 55.9297 54.4033 55.9297 55.5533ZM67.0469 55.5533C67.0469 56.7034 66.1524 57.5979 65.0023 57.5979H63.3411C62.1911 57.5979 61.2966 56.7034 61.2966 55.5533C61.2966 54.4033 62.1911 53.5088 63.3411 53.5088H65.0023C66.1524 53.5088 67.0469 54.4033 67.0469 55.5533ZM67.0469 46.0973C67.0469 46.4807 66.7274 46.864 66.2802 46.864H39.765C39.3816 46.864 38.9983 46.5446 38.9983 46.0973V41.6888C38.9983 41.3054 39.3177 40.9221 39.765 40.9221H66.344C66.7274 40.9221 67.1108 41.2415 67.1108 41.6888V46.0973H67.0469Z" fill="black"/>
<defs>
<linearGradient id="paint0_linear_6230_58" x1="20.3161" y1="94.7244" x2="85.6861" y2="11.2797" gradientUnits="userSpaceOnUse">
<stop stop-color="#F6AF1B"/>
<stop offset="1" stop-color="#E75924"/>
</linearGradient>
</defs>
</svg>
