<svg width="33" height="25" viewBox="0 0 33 25" fill="none" xmlns="http://www.w3.org/2000/svg">
<path d="M28.7285 1.74805H3.39518C1.92242 1.74805 0.728516 2.94195 0.728516 4.41471V20.4147C0.728516 21.8875 1.92242 23.0814 3.39518 23.0814H28.7285C30.2013 23.0814 31.3952 21.8875 31.3952 20.4147V4.41471C31.3952 2.94195 30.2013 1.74805 28.7285 1.74805Z" stroke="#61637A" stroke-width="3.06633" stroke-linecap="round" stroke-linejoin="round"/>
<path d="M4.72852 6.41504V18.415" stroke="#61637A" stroke-width="3.06633" stroke-linecap="round" stroke-linejoin="round"/>
<path d="M27.3955 6.41504V18.415" stroke="#61637A" stroke-width="3.06633" stroke-linecap="round" stroke-linejoin="round"/>
<path d="M10.0615 6.41504V14.415" stroke="#61637A" stroke-width="3.06633" stroke-linecap="round" stroke-linejoin="round"/>
<path d="M16.7285 6.41504V14.415" stroke="#61637A" stroke-width="3.06633" stroke-linecap="round" stroke-linejoin="round"/>
<path d="M19.3945 6.41504V14.415" stroke="#61637A" stroke-width="3.06633" stroke-linecap="round" stroke-linejoin="round"/>
<path d="M12.7275 6.41504V14.415" stroke="#61637A" stroke-width="3.06633" stroke-linecap="round" stroke-linejoin="round"/>
<path d="M22.0615 6.41504V14.415" stroke="#61637A" stroke-width="3.06633" stroke-linecap="round" stroke-linejoin="round"/>
<path d="M10.0615 18.4154V17.082" stroke="#61637A" stroke-width="3.06633" stroke-linecap="round" stroke-linejoin="round"/>
<path d="M7.39453 6.41504V14.415" stroke="#61637A" stroke-width="3.06633" stroke-linecap="round" stroke-linejoin="round"/>
<path d="M7.39453 18.4154V17.082" stroke="#61637A" stroke-width="3.06633" stroke-linecap="round" stroke-linejoin="round"/>
<path d="M12.7275 18.4154V17.082" stroke="#61637A" stroke-width="3.06633" stroke-linecap="round" stroke-linejoin="round"/>
<path d="M16.7285 18.4154V17.082" stroke="#61637A" stroke-width="3.06633" stroke-linecap="round" stroke-linejoin="round"/>
<path d="M19.3945 18.4154V17.082" stroke="#61637A" stroke-width="3.06633" stroke-linecap="round" stroke-linejoin="round"/>
<path d="M22.0615 18.4154V17.082" stroke="#61637A" stroke-width="3.06633" stroke-linecap="round" stroke-linejoin="round"/>
<path d="M24.7285 6.41504V14.415" stroke="#61637A" stroke-width="3.06633" stroke-linecap="round" stroke-linejoin="round"/>
<path d="M24.7285 18.4154V17.082" stroke="#61637A" stroke-width="3.06633" stroke-linecap="round" stroke-linejoin="round"/>
</svg>
