<svg width="33" height="33" viewBox="0 0 33 33" fill="none" xmlns="http://www.w3.org/2000/svg">
<g clip-path="url(#clip0_1229_33559)">
<path d="M31.3952 25.3967C31.3953 25.1897 31.3469 24.9856 31.2538 24.8007L27.3952 17.082H4.72852L0.869849 24.8007C0.776799 24.9856 0.728393 25.1897 0.728516 25.3967V30.4154C0.728516 30.769 0.868992 31.1081 1.11904 31.3582C1.36909 31.6082 1.70823 31.7487 2.06185 31.7487H30.0618C30.4155 31.7487 30.7546 31.6082 31.0047 31.3582C31.2547 31.1081 31.3952 30.769 31.3952 30.4154V25.3967Z" stroke="#61637A" stroke-width="2.42261" stroke-linecap="round" stroke-linejoin="round"/>
<path d="M11.3955 29.0824V28.4157C11.3955 28.2389 11.4657 28.0693 11.5908 27.9443C11.7158 27.8193 11.8854 27.749 12.0622 27.749H20.0622C20.239 27.749 20.4086 27.8193 20.5336 27.9443C20.6586 28.0693 20.7288 28.2389 20.7288 28.4157V29.0824" stroke="#61637A" stroke-width="2.42261" stroke-linecap="round" stroke-linejoin="round"/>
<path d="M27.3952 17.082H4.72852V10.4154C4.72852 10.0617 4.86899 9.7226 5.11904 9.47256C5.36909 9.22251 5.70823 9.08203 6.06185 9.08203H26.0618C26.4155 9.08203 26.7546 9.22251 27.0047 9.47256C27.2547 9.7226 27.3952 10.0617 27.3952 10.4154V17.082Z" stroke="#61637A" stroke-width="2.42261" stroke-linecap="round" stroke-linejoin="round"/>
<path d="M7.39648 11.748H14.7298V14.4147H7.39648V11.748Z" stroke="#61637A" stroke-width="2.42261" stroke-linecap="round" stroke-linejoin="round"/>
<path d="M18.7285 13.082H24.7285" stroke="#61637A" stroke-width="2.42261" stroke-linecap="round" stroke-linejoin="round"/>
<path d="M12.7298 6.41485V3.08152C12.7298 2.98026 12.7067 2.88033 12.6623 2.78932C12.6179 2.69832 12.5533 2.61862 12.4735 2.55629C12.3937 2.49396 12.3007 2.45063 12.2017 2.42959C12.1026 2.40855 12.0001 2.41035 11.9018 2.43485L7.90182 3.43485C7.75753 3.47084 7.62942 3.55404 7.53785 3.67121C7.44629 3.78839 7.39653 3.93281 7.39648 4.08152V6.41485" stroke="#61637A" stroke-width="2.42261" stroke-linecap="round" stroke-linejoin="round"/>
<path d="M19.3955 1.08203H27.3955V5.08203H19.3955V1.08203Z" stroke="#61637A" stroke-width="2.42261" stroke-linecap="round" stroke-linejoin="round"/>
<path d="M23.3955 5.08203V9.08203" stroke="#61637A" stroke-width="2.42261" stroke-linecap="round" stroke-linejoin="round"/>
<path d="M9.39551 19.749H10.7288" stroke="#61637A" stroke-width="2.42261" stroke-linecap="round" stroke-linejoin="round"/>
<path d="M13.3945 19.749H14.7279" stroke="#61637A" stroke-width="2.42261" stroke-linecap="round" stroke-linejoin="round"/>
<path d="M17.3955 19.749H18.7288" stroke="#61637A" stroke-width="2.42261" stroke-linecap="round" stroke-linejoin="round"/>
<path d="M21.3955 19.749H22.7288" stroke="#61637A" stroke-width="2.42261" stroke-linecap="round" stroke-linejoin="round"/>
<path d="M5.39551 22.415H6.72884" stroke="#61637A" stroke-width="2.42261" stroke-linecap="round" stroke-linejoin="round"/>
<path d="M9.39551 22.415H10.7288" stroke="#61637A" stroke-width="2.42261" stroke-linecap="round" stroke-linejoin="round"/>
<path d="M13.3945 22.415H14.7279" stroke="#61637A" stroke-width="2.42261" stroke-linecap="round" stroke-linejoin="round"/>
<path d="M17.3955 22.415H18.7288" stroke="#61637A" stroke-width="2.42261" stroke-linecap="round" stroke-linejoin="round"/>
<path d="M21.3955 22.415H22.7288" stroke="#61637A" stroke-width="2.42261" stroke-linecap="round" stroke-linejoin="round"/>
<path d="M25.3955 22.415H26.7288" stroke="#61637A" stroke-width="2.42261" stroke-linecap="round" stroke-linejoin="round"/>
<path d="M0.759766 25.082H31.3624" stroke="#61637A" stroke-width="2.42261" stroke-linecap="round" stroke-linejoin="round"/>
</g>
<defs>
<clipPath id="clip0_1229_33559">
<rect width="32" height="32" fill="white" transform="translate(0.0615234 0.415039)"/>
</clipPath>
</defs>
</svg>
