<svg width="174" height="38" viewBox="0 0 174 38" fill="none" xmlns="http://www.w3.org/2000/svg">
<g clip-path="url(#clip0_9531_17819)">
<path d="M129.271 11.2199H128.002C127.787 10.0853 127.59 8.89669 127.412 7.67204C127.233 6.4474 127.09 5.16873 126.983 3.85403H128.395C128.466 4.89858 128.556 5.90712 128.663 6.91565C128.753 7.90617 128.86 8.82465 128.985 9.65309C129.253 9.25688 129.521 8.82465 129.789 8.3564C130.058 7.88816 130.344 7.4019 130.63 6.89764C130.916 6.39337 131.184 5.88911 131.452 5.38484C131.72 4.86257 131.97 4.3583 132.221 3.87204H133.669C133.007 5.13271 132.31 6.37536 131.595 7.61802C130.88 8.82465 130.111 10.0493 129.271 11.2199Z" fill="black"/>
<path d="M136.1 11.382C135.689 11.382 135.314 11.31 134.974 11.1839C134.634 11.0578 134.33 10.8597 134.08 10.6076C133.83 10.3555 133.633 10.0493 133.508 9.6891C133.365 9.32891 133.293 8.89668 133.293 8.42844C133.293 7.85213 133.383 7.29384 133.562 6.71754C133.74 6.14123 134.009 5.63697 134.366 5.18673C134.724 4.73649 135.153 4.3763 135.689 4.08815C136.207 3.8 136.815 3.67393 137.477 3.67393C137.888 3.67393 138.263 3.74597 138.603 3.87204C138.943 3.99811 139.247 4.19621 139.497 4.44834C139.747 4.70048 139.944 5.00664 140.069 5.36683C140.194 5.72702 140.283 6.15924 140.283 6.62749C140.283 7.20379 140.194 7.76209 140.015 8.33839C139.837 8.91469 139.568 9.41896 139.211 9.8692C138.853 10.3194 138.424 10.6796 137.888 10.9678C137.369 11.2379 136.78 11.382 136.1 11.382ZM137.352 4.84455C136.958 4.84455 136.583 4.95261 136.261 5.15071C135.939 5.34882 135.653 5.61896 135.421 5.94313C135.188 6.2673 135.01 6.6455 134.885 7.05972C134.759 7.47394 134.688 7.88815 134.688 8.32038C134.688 8.89668 134.813 9.36493 135.063 9.70711C135.314 10.0493 135.707 10.2294 136.243 10.2294C136.637 10.2294 137.012 10.1213 137.334 9.92322C137.673 9.72512 137.942 9.45498 138.174 9.13081C138.406 8.80664 138.585 8.42844 138.71 8.01422C138.835 7.6 138.907 7.18578 138.907 6.75356C138.907 6.17725 138.782 5.70901 138.532 5.36683C138.299 5.02465 137.906 4.84455 137.352 4.84455Z" fill="black"/>
<path d="M146.827 8.51849C146.719 8.96873 146.594 9.38294 146.433 9.72512C146.272 10.0853 146.058 10.3735 145.808 10.6256C145.557 10.8777 145.236 11.0578 144.86 11.1839C144.485 11.31 144.038 11.382 143.519 11.382C143.108 11.382 142.768 11.328 142.465 11.2199C142.179 11.1119 141.928 10.9678 141.749 10.7697C141.571 10.5716 141.428 10.3555 141.338 10.0853C141.249 9.81517 141.213 9.52702 141.213 9.22086C141.213 9.05877 141.231 8.87868 141.249 8.68057C141.267 8.48247 141.303 8.28437 141.356 8.10427L142.357 3.85403H143.698L142.661 8.24835C142.625 8.37441 142.59 8.51849 142.572 8.66257C142.554 8.80664 142.536 8.95072 142.536 9.07678C142.536 9.23887 142.554 9.38295 142.59 9.52702C142.625 9.6711 142.697 9.77915 142.786 9.88721C142.876 9.99527 143.001 10.0673 143.144 10.1213C143.287 10.1754 143.484 10.2114 143.698 10.2114C144.217 10.2114 144.61 10.0673 144.878 9.76114C145.146 9.45498 145.361 9.00475 145.504 8.39242L146.576 3.85403H147.917L146.827 8.51849Z" fill="black"/>
<path d="M153.352 10.9137C153.119 11.0398 152.815 11.1479 152.458 11.2379C152.1 11.346 151.653 11.382 151.153 11.382C150.706 11.382 150.295 11.31 149.955 11.1659C149.598 11.0218 149.311 10.8237 149.061 10.5716C148.811 10.3014 148.632 9.99527 148.489 9.61707C148.364 9.25688 148.292 8.82465 148.292 8.37441C148.292 7.7801 148.4 7.2038 148.596 6.62749C148.793 6.0692 149.079 5.56493 149.455 5.1147C149.83 4.68247 150.277 4.32228 150.813 4.05214C151.349 3.782 151.957 3.65593 152.637 3.65593C153.084 3.65593 153.459 3.70996 153.799 3.80001C154.12 3.90806 154.407 4.01612 154.657 4.1602L154.156 5.24076C153.924 5.1147 153.691 5.00664 153.441 4.9346C153.191 4.86256 152.887 4.82655 152.565 4.82655C152.118 4.82655 151.725 4.9346 151.367 5.13271C151.01 5.33081 150.706 5.60095 150.456 5.90711C150.205 6.23129 150.009 6.59148 149.884 7.00569C149.758 7.41991 149.687 7.83413 149.687 8.26636C149.687 8.93271 149.83 9.41896 150.116 9.72512C150.402 10.0493 150.813 10.1934 151.367 10.1934C151.796 10.1934 152.154 10.1393 152.44 10.0493C152.744 9.95925 152.994 9.85119 153.209 9.76114L153.352 10.9137Z" fill="black"/>
<path d="M160.324 3.85403H161.647L159.895 11.2199H158.572L159.359 7.94219H156.355L155.569 11.2199H154.246L155.998 3.85403H157.321L156.605 6.80759H159.609L160.324 3.85403Z" fill="black"/>
<path d="M161.575 11.2199L163.327 3.85403H167.868L167.6 4.97062H164.382L163.953 6.8256H166.813L166.545 7.92418H163.703L163.166 10.1213H166.634L166.366 11.2379H161.575V11.2199Z" fill="black"/>
<path d="M171.336 3.782C172.212 3.782 172.874 3.96209 173.321 4.32228C173.768 4.68247 174 5.16873 174 5.78105C174 6.05119 173.964 6.30333 173.893 6.55546C173.821 6.80759 173.696 7.0237 173.553 7.23982C173.392 7.45593 173.196 7.63603 172.945 7.79811C172.695 7.9602 172.391 8.10427 172.034 8.19432C172.123 8.35641 172.23 8.55451 172.338 8.78863C172.445 9.02276 172.552 9.27489 172.659 9.52702C172.767 9.79716 172.874 10.0673 172.981 10.3555C173.088 10.6436 173.178 10.9318 173.267 11.2199H171.873C171.783 10.9678 171.694 10.6976 171.605 10.4455C171.515 10.1934 171.426 9.92323 171.319 9.68911C171.211 9.43697 171.122 9.22086 171.015 9.00475C170.907 8.78863 170.818 8.59053 170.711 8.42844C170.639 8.42844 170.568 8.44645 170.478 8.44645C170.389 8.44645 170.3 8.44645 170.228 8.44645H169.62L168.959 11.2379H167.618L169.334 3.96209C169.674 3.89005 170.013 3.83603 170.371 3.81802C170.729 3.782 171.05 3.782 171.336 3.782ZM172.659 5.92513C172.659 5.52892 172.516 5.25877 172.23 5.1147C171.944 4.97062 171.569 4.89859 171.104 4.89859C170.997 4.89859 170.907 4.89859 170.782 4.91659C170.675 4.91659 170.55 4.9346 170.443 4.95261L169.87 7.36588H170.46C170.782 7.36588 171.068 7.34787 171.336 7.29385C171.605 7.23982 171.837 7.14977 172.034 7.04171C172.23 6.93366 172.373 6.78958 172.481 6.59148C172.606 6.39337 172.659 6.17726 172.659 5.92513Z" fill="black"/>
<path d="M23.4551 0.576303C23.4372 0.576303 23.4194 0.558294 23.4015 0.558294C21.864 0.180095 20.3445 0 18.8428 0C10.3868 0 2.68166 5.78104 0.554258 14.4256C-1.94857 24.6009 4.20123 34.9024 14.3198 37.4237C15.8394 37.8019 17.3768 37.982 18.8785 37.982C27.3345 37.982 35.0396 32.2009 37.167 23.5564C39.652 13.4171 33.52 3.11564 23.4551 0.576303ZM35.6832 23.1962C33.7524 30.9943 26.8518 36.4512 18.8785 36.4512C17.4841 36.4512 16.0718 36.2711 14.6952 35.9289C10.208 34.8123 6.41802 31.9848 4.02246 27.9867C1.6269 23.9886 0.929681 19.3242 2.03808 14.8038C3.96883 7.00569 10.8695 1.54882 18.8428 1.54882C20.2372 1.54882 21.6495 1.72891 23.0261 2.07109H23.0439H23.0618C32.3223 4.39431 37.9715 13.8853 35.6832 23.1962Z" fill="url(#paint0_linear_9531_17819)"/>
<path d="M22.7936 16.4607C22.2573 18.6398 18.95 17.5232 17.8774 17.2531L18.8249 13.4351C19.8796 13.6872 23.3299 14.1915 22.7936 16.4607ZM22.2037 22.6199C21.6137 24.9972 17.645 23.7185 16.3578 23.3943L17.3947 19.1801C18.6818 19.5043 22.8115 20.1346 22.2037 22.6199ZM26.53 16.4967C26.8697 14.1735 25.1177 12.9308 22.74 12.1024L23.5266 8.95071L21.5958 8.46445L20.845 11.5261C20.3444 11.4 19.826 11.2739 19.3254 11.1659L20.0763 8.06824L18.1813 7.58199L17.3947 10.7336L16.179 10.4635L13.5511 9.79715L13.0505 11.8502C13.0505 11.8502 14.3555 12.1744 14.427 12.1924C14.8561 12.2825 15.3567 12.7327 15.3209 13.291L13.1935 21.9175C13.0684 22.2777 12.6929 22.4938 12.3175 22.3678C12.2818 22.3498 10.9231 22.0256 10.9231 22.0256L9.97559 24.2047L12.4427 24.8171L13.8013 25.1772L13.0147 28.3649L14.9097 28.8512L15.6963 25.6995C16.2148 25.8436 16.7153 25.9697 17.198 26.0957L16.4472 29.2294L18.3422 29.6976L19.1288 26.528C22.3825 27.1403 24.8138 26.9062 25.8328 23.9346C26.6551 21.5573 25.797 20.1886 24.0808 19.2881C25.3501 19.018 26.2618 18.2076 26.53 16.4967Z" fill="#010101"/>
<path d="M54.508 13.219C55.6879 13.219 56.7069 13.4351 57.565 13.8493C58.4231 14.2635 59.1382 14.8398 59.7103 15.5602C60.2823 16.2806 60.6935 17.127 60.9617 18.0815C61.2298 19.054 61.3729 20.0806 61.3729 21.1972C61.3729 22.9081 61.069 24.5289 60.4254 26.0417C59.7997 27.5725 58.9416 28.8872 57.8689 30.0218C56.7963 31.1564 55.5091 32.0389 54.0432 32.6872C52.5772 33.3355 50.9683 33.6777 49.252 33.6777C49.0375 33.6777 48.6442 33.6777 48.09 33.6597C47.5358 33.6417 46.9101 33.5877 46.195 33.4976C45.4799 33.3896 44.7291 33.2455 43.9246 33.0474C43.1201 32.8493 42.3693 32.5791 41.6542 32.237L48.0364 5.24076L53.7571 4.35829L51.4688 13.9393C51.9515 13.7232 52.4521 13.5431 52.9348 13.4171C53.4175 13.291 53.9538 13.219 54.508 13.219ZM49.7168 29.1213C50.575 29.1213 51.3794 28.9052 52.1482 28.491C52.9169 28.0768 53.5605 27.5005 54.1147 26.7981C54.6689 26.0957 55.0979 25.3033 55.4197 24.4028C55.7415 23.5204 55.9024 22.5839 55.9024 21.6114C55.9024 20.4227 55.7058 19.5043 55.3125 18.8199C54.9191 18.1536 54.1862 17.8114 53.1314 17.8114C52.7918 17.8114 52.3448 17.8654 51.7906 17.9915C51.2364 18.1175 50.7359 18.3697 50.3068 18.7659L47.8755 28.9412C48.0185 28.9592 48.1436 28.9953 48.2688 29.0133C48.376 29.0313 48.5012 29.0493 48.6263 29.0673C48.7515 29.0853 48.8945 29.0853 49.0733 29.0853C49.2342 29.1213 49.4487 29.1213 49.7168 29.1213Z" fill="#010101"/>
<path d="M70.1506 33.5336C68.3987 33.5336 67.04 33.2995 66.0389 32.8493C65.0377 32.399 64.3226 31.7687 63.8936 30.9763C63.4645 30.1839 63.25 29.2834 63.2679 28.2389C63.2858 27.2123 63.4288 26.1137 63.6969 24.9611L68.3808 5.24076L74.1015 4.35829L68.9707 25.7536C68.8635 26.2038 68.8098 26.6 68.8098 26.9782C68.792 27.3564 68.8635 27.6806 69.0065 27.9687C69.1495 28.2569 69.3998 28.491 69.7573 28.6531C70.1149 28.8332 70.6155 28.9412 71.2412 28.9953L70.1506 33.5336Z" fill="#010101"/>
<path d="M78.4278 33.1735H72.9752L77.5876 13.6332H83.0759L78.4278 33.1735Z" fill="#010101"/>
<path d="M87.1341 14.5336C87.5452 14.4076 88.0101 14.2635 88.5106 14.1014C89.0112 13.9393 89.5833 13.7953 90.209 13.6512C90.8347 13.5071 91.5319 13.3991 92.3185 13.309C93.0872 13.219 93.9632 13.1829 94.9465 13.1829C97.8426 13.1829 99.827 14.0294 100.917 15.7043C101.99 17.3791 102.187 19.6844 101.472 22.6019L98.9689 33.1374H93.4805L95.9118 22.818C96.0549 22.1697 96.18 21.5573 96.2694 20.945C96.3588 20.3327 96.3409 19.8104 96.2515 19.3422C96.1442 18.8919 95.9297 18.5137 95.5722 18.2256C95.2146 17.9374 94.6783 17.7934 93.9275 17.7934C93.2124 17.7934 92.4973 17.8654 91.7464 18.0095L88.171 33.1194H82.6826L87.1341 14.5336Z" fill="#010101"/>
<path d="M110.535 20.6929C112.001 19.5043 113.396 18.2976 114.701 17.055C116.006 15.8123 117.114 14.6777 118.062 13.6332H124.247C122.871 15.164 121.441 16.6768 119.957 18.1355C118.473 19.6123 116.775 21.1791 114.844 22.836C115.362 23.4844 115.881 24.2227 116.417 25.0692C116.953 25.9156 117.454 26.7981 117.919 27.6986C118.401 28.6171 118.848 29.5355 119.242 30.49C119.653 31.4265 119.993 32.327 120.261 33.1555H114.147C113.932 32.5071 113.646 31.8047 113.324 31.0483C112.985 30.2739 112.627 29.5175 112.216 28.7611C111.805 28.0047 111.394 27.2663 110.947 26.546C110.5 25.8256 110.071 25.1772 109.624 24.619L107.568 33.1555H102.115L108.748 5.24076L114.468 4.35829L110.535 20.6929Z" fill="#010101"/>
<path d="M85.0066 7.74408C85.0066 8.26635 84.9173 8.7346 84.7206 9.18484C84.524 9.63507 84.2558 10.0133 83.934 10.3555C83.5943 10.6796 83.201 10.9498 82.7541 11.1479C82.3072 11.346 81.8245 11.436 81.3239 11.436C80.8055 11.436 80.3407 11.346 79.8937 11.1479C79.4468 10.9498 79.0535 10.6976 78.7317 10.3555C78.4099 10.0133 78.1417 9.63507 77.9451 9.18484C77.7484 8.7346 77.6591 8.26635 77.6591 7.74408C77.6591 7.23981 77.7484 6.77157 77.9451 6.32133C78.1417 5.87109 78.392 5.47488 78.7317 5.15071C79.0535 4.82654 79.4468 4.5564 79.8937 4.3583C80.3407 4.16019 80.8233 4.07014 81.3239 4.07014C81.8424 4.07014 82.3072 4.16019 82.7541 4.3583C83.201 4.5564 83.5943 4.80853 83.934 5.15071C84.2737 5.47488 84.5418 5.87109 84.7206 6.32133C84.9173 6.77157 85.0066 7.23981 85.0066 7.74408Z" fill="#010101"/>
</g>
<defs>
<linearGradient id="paint0_linear_9531_17819" x1="7.22804" y1="33.9522" x2="30.6995" y2="4.21079" gradientUnits="userSpaceOnUse">
<stop stop-color="#F9BC18"/>
<stop offset="1" stop-color="#E75824"/>
</linearGradient>
<clipPath id="clip0_9531_17819">
<rect width="174" height="38" fill="white"/>
</clipPath>
</defs>
</svg>
