<svg width="52" height="52" viewBox="0 0 52 52" fill="none" xmlns="http://www.w3.org/2000/svg">
<rect width="51.6957" height="51.6957" rx="10" fill="white"/>
<path d="M30.4402 6.62655C30.4223 6.62184 30.4044 6.61714 30.3866 6.61244C28.8006 6.21925 27.2129 6.03113 25.6495 6.03113H25.642C16.8368 6.03489 8.82821 12.006 6.61302 20.9383C4.00371 31.4592 10.4169 42.1034 20.9379 44.7118C22.5248 45.105 24.1125 45.2931 25.6777 45.2931C34.4858 45.2931 42.4972 39.3201 44.7124 30.386C47.317 19.8866 40.9329 9.25938 30.4402 6.62655ZM43.1716 30.005C41.1709 38.0719 33.9769 43.7063 25.6777 43.7063C24.2179 43.7063 22.7514 43.5266 21.3207 43.171C16.6439 42.0112 12.6989 39.1 10.2119 34.9725C7.72485 30.845 6.99398 25.997 8.15378 21.3202C10.1545 13.2561 17.3569 7.62174 25.6533 7.61891C27.1103 7.61891 28.5749 7.79952 30.0169 8.15696L30.0348 8.16166L30.0536 8.16636C39.6753 10.581 45.5599 20.3776 43.1716 30.005Z" fill="url(#paint0_linear_9574_15086)"/>
<path d="M29.7546 23.034C29.1911 25.2887 25.7531 24.1326 24.6366 23.857L25.6224 19.912C26.721 20.1829 30.318 20.7012 29.7367 23.034H29.7546ZM29.1403 29.4096C28.5317 31.8665 24.3948 30.5374 23.0535 30.2035L24.1409 25.8465C25.4822 26.1851 29.7771 26.8445 29.1403 29.4096ZM33.6497 23.0688C34.0053 20.6674 32.1786 19.3768 29.7047 18.5208L30.5165 15.2691L28.5157 14.7734L27.7265 17.9414C27.2083 17.8116 26.673 17.6874 26.1425 17.5689L26.9317 14.367L24.9536 13.8713L24.1418 17.1231L22.8795 16.8418L20.146 16.1599L19.6221 18.2735C19.6221 18.2735 20.9879 18.6074 21.0593 18.6347C21.5014 18.724 22.0273 19.2 21.984 19.7625L19.7632 28.6684C19.6418 29.0484 19.2364 29.2572 18.8564 29.1359C18.8141 29.1246 17.4135 28.7803 17.4135 28.7803L16.4324 31.035L19.0078 31.6718L20.4169 32.0387L19.5995 35.3243L21.5776 35.82L22.3894 32.5682C22.9227 32.715 23.4476 32.8495 23.9621 32.9736L23.1617 36.2376L25.1398 36.7277L25.9572 33.4477C29.3388 34.0855 31.87 33.8306 32.9405 30.7763C33.803 28.3185 32.8953 26.9038 31.1203 25.9791C32.4165 25.68 33.375 24.8513 33.6506 23.0707L33.6497 23.0688Z" fill="black"/>
<defs>
<linearGradient id="paint0_linear_9574_15086" x1="13.5562" y1="41.117" x2="37.7696" y2="10.2086" gradientUnits="userSpaceOnUse">
<stop stop-color="#F6AF1B"/>
<stop offset="1" stop-color="#E75924"/>
</linearGradient>
</defs>
</svg>
