<svg width="63" height="83" viewBox="0 0 63 83" fill="none" xmlns="http://www.w3.org/2000/svg">
<path d="M42 9.77344C42 4.91719 38.0349 1 33.1796 1H9.8204C4.96513 1 1 4.94402 1 9.77344V73.2266C1 78.0828 4.96513 82 9.8204 82H33.1526C38.0349 82 41.973 78.056 41.973 73.2266V41.7281" stroke="#a3a3a3" stroke-width="2" stroke-miterlimit="10"/>
<path d="M25 74C25 75.6569 23.6569 77 22 77C20.3431 77 19 75.6569 19 74C19 72.3431 20.3431 71 22 71C23.6569 71 25 72.3431 25 74Z" stroke="#acacac" stroke-width="2"/>
<path d="M49.2 10.3333C42.0667 10.3333 26.3333 7 20.3333 7C14.3333 7 10 8.33333 10 8.33333V18V29.3333V39C10 39 15 37 22.1333 37C29.2667 37 45 40.3333 51 40.3333C57 40.3333 61.3333 39 61.3333 39V29.3333V18V8.33333C61.3333 8.33333 56.3333 10.3333 49.2 10.3333Z" stroke="#b6b6b6" stroke-width="2" stroke-miterlimit="10"/>
<path d="M39.4859 14.2023L37.7837 13.8405L37.1807 16.6775L38.8829 17.0393L39.4859 14.2023Z" fill="#FB5607"/>
<path d="M35.8277 31.4134L34.1255 31.0516L33.5225 33.8886L35.2247 34.2504L35.8277 31.4134Z" fill="#FB5607"/>
<path d="M42.238 28.7829L29.4148 26.0572L29.053 27.7594L41.8762 30.4851L42.238 28.7829Z" fill="#FB5607"/>
<path d="M43.1386 24.5463L30.3154 21.8207L29.9536 23.5229L42.7768 26.2485L43.1386 24.5463Z" fill="#FB5607"/>
<path d="M43.1386 24.5463L30.3154 21.8207L29.9536 23.5229L42.7768 26.2485L43.1386 24.5463Z" fill="#FB5607"/>
<path d="M44.0632 20.1963L31.24 17.4706L30.8782 19.1728L43.7014 21.8985L44.0632 20.1963Z" fill="#FB5607"/>
</svg>
