<svg width="21" height="26" viewBox="0 0 21 26" fill="none" xmlns="http://www.w3.org/2000/svg">
<path d="M14.5912 3.59954C14.5912 2.16065 13.2768 1 11.6673 1H3.92389C2.31441 1 1 2.1686 1 3.59954V22.4005C1 23.8394 2.31441 25 3.92389 25H11.6583C13.2768 25 14.5822 23.8314 14.5822 22.4005V13.0676" stroke="#62627E" stroke-width="1.5" stroke-miterlimit="10"/>
<path d="M8.53719 22.6296C8.53719 22.793 8.3607 23.0648 7.96122 23.0648C7.56175 23.0648 7.38525 22.793 7.38525 22.6296C7.38525 22.4662 7.56175 22.1945 7.96122 22.1945C8.3607 22.1945 8.53719 22.4662 8.53719 22.6296Z" stroke="#62627E" stroke-width="1.5"/>
<path d="M20.0289 4.20331C20.1058 4.18726 20.1795 4.17119 20.25 4.15526V6.03703V9.39505V11.6572C20.1496 11.6762 20.0368 11.6963 19.9128 11.7165C19.3359 11.8103 18.5206 11.9043 17.5746 11.9043C16.6748 11.9043 15.0242 11.6837 13.2165 11.442C13.1546 11.4337 13.0925 11.4254 13.0302 11.4171C11.2038 11.1731 9.24974 10.9167 8.0055 10.9167C6.76167 10.9167 5.70396 11.0724 4.9545 11.2288C4.87757 11.2448 4.80383 11.2609 4.7334 11.2768V9.39505V6.03703V3.77492C4.83379 3.75584 4.94654 3.73574 5.07056 3.71559C5.64748 3.62183 6.4628 3.52777 7.40881 3.52777C8.30853 3.52777 9.95917 3.74844 11.7669 3.9901C11.8288 3.99838 11.8909 4.00668 11.9531 4.01499C13.7796 4.25902 15.7336 4.51543 16.9779 4.51543C18.2217 4.51543 19.2794 4.35971 20.0289 4.20331ZM4.18154 3.89619L4.18205 3.89605L4.18185 3.8961L4.18154 3.89619Z" stroke="#62627E" stroke-width="1.5" stroke-miterlimit="10"/>
</svg>
