<svg width="32" height="32" viewBox="0 0 32 32" fill="none" xmlns="http://www.w3.org/2000/svg">
<g clip-path="url(#clip0_404_10486)">
<path d="M25.2119 11.1457L16.4844 19.8732" stroke="#fb5607" stroke-width="2.42424" stroke-linecap="round" stroke-linejoin="round"/>
<path d="M16.4844 11.1457L25.2119 19.8732" stroke="#fb5607" stroke-width="2.42424" stroke-linecap="round" stroke-linejoin="round"/>
<path d="M14.7801 3.87879H28.1215C28.8931 3.87879 29.633 4.18529 30.1786 4.73086C30.7242 5.27644 31.0307 6.0164 31.0307 6.78796V24.243C31.0307 25.0145 30.7242 25.7545 30.1786 26.3001C29.633 26.8457 28.8931 27.1522 28.1215 27.1522H14.7801C14.009 27.152 13.2696 26.8458 12.7242 26.3007L2.36565 16.5376C2.23054 16.4026 2.12336 16.2424 2.05023 16.066C1.9771 15.8897 1.93945 15.7006 1.93945 15.5097C1.93945 15.3187 1.9771 15.1296 2.05023 14.9533C2.12336 14.7769 2.23054 14.6167 2.36565 14.4817L12.7242 4.72439C13.2706 4.1815 14.0099 3.87741 14.7801 3.87879V3.87879Z" stroke="#fb5607" stroke-width="2.42424" stroke-linecap="round" stroke-linejoin="round"/>
</g>
<defs>
<clipPath id="clip0_404_10486">
<rect width="32" height="32" fill="white"/>
</clipPath>
</defs>
</svg>
