<svg width="105" height="105" viewBox="0 0 105 105" fill="none" xmlns="http://www.w3.org/2000/svg">
<path d="M52.5 0C42.1165 0 31.9662 3.07907 23.3326 8.84785C14.699 14.6166 7.96995 22.816 3.99635 32.4091C0.0227475 42.0022 -1.01693 52.5582 1.0088 62.7422C3.03452 72.9263 8.03466 82.2809 15.3769 89.6231C22.7192 96.9654 32.0738 101.966 42.2578 103.991C52.4418 106.017 62.9978 104.977 72.5909 101.004C82.184 97.0301 90.3834 90.301 96.1522 81.6674C101.921 73.0339 105 62.8835 105 52.5C105 38.5761 99.4688 25.2226 89.6231 15.3769C79.7775 5.53123 66.4239 0 52.5 0V0ZM76.5188 70.3063C77.3426 71.1243 77.8077 72.2361 77.8118 73.397C77.8159 74.558 77.3587 75.6731 76.5407 76.4969C75.7226 77.3207 74.6108 77.7858 73.4499 77.7899C72.2889 77.794 71.1739 77.3368 70.35 76.5188L53.2875 59.4563C53.1855 59.3504 53.0632 59.2662 52.9279 59.2087C52.7926 59.1512 52.647 59.1215 52.5 59.1215C52.353 59.1215 52.2075 59.1512 52.0722 59.2087C51.9369 59.2662 51.8146 59.3504 51.7125 59.4563L34.65 76.5188C34.2421 76.9238 33.7584 77.2445 33.2265 77.4626C32.6947 77.6808 32.125 77.792 31.5502 77.7899C30.9753 77.7879 30.4065 77.6727 29.8762 77.4508C29.3459 77.2289 28.8644 76.9048 28.4594 76.4969C28.0544 76.089 27.7336 75.6053 27.5155 75.0734C27.2974 74.5415 27.1862 73.9719 27.1882 73.397C27.1902 72.8222 27.3055 72.2534 27.5273 71.723C27.7492 71.1927 28.0734 70.7113 28.4813 70.3063L45.5438 53.2875C45.6496 53.1855 45.7338 53.0632 45.7913 52.9278C45.8488 52.7925 45.8785 52.647 45.8785 52.5C45.8785 52.353 45.8488 52.2075 45.7913 52.0722C45.7338 51.9369 45.6496 51.8145 45.5438 51.7125L28.4813 34.65C27.7645 33.8131 27.39 32.7365 27.4325 31.6354C27.4751 30.5343 27.9315 29.4898 28.7107 28.7107C29.4898 27.9315 30.5343 27.475 31.6354 27.4325C32.7365 27.39 33.8131 27.7645 34.65 28.4813L51.7125 45.5438C51.8146 45.6496 51.9369 45.7338 52.0722 45.7913C52.2075 45.8488 52.353 45.8785 52.5 45.8785C52.647 45.8785 52.7926 45.8488 52.9279 45.7913C53.0632 45.7338 53.1855 45.6496 53.2875 45.5438L70.35 28.4813C71.187 27.7645 72.2635 27.39 73.3646 27.4325C74.4657 27.475 75.5102 27.9315 76.2894 28.7107C77.0685 29.4898 77.525 30.5343 77.5675 31.6354C77.61 32.7365 77.2355 33.8131 76.5188 34.65L59.4563 51.7125C59.3504 51.8145 59.2662 51.9369 59.2087 52.0722C59.1512 52.2075 59.1216 52.353 59.1216 52.5C59.1216 52.647 59.1512 52.7925 59.2087 52.9278C59.2662 53.0632 59.3504 53.1855 59.4563 53.2875L76.5188 70.3063Z" fill="#E0477E"/>
</svg>
