<svg width="32" height="32" viewBox="0 0 32 32" fill="none" xmlns="http://www.w3.org/2000/svg">
<path d="M0.333333 25.84C0.24719 25.84 0.164365 25.8732 0.102223 25.9329C0.04008 25.9926 0.0034457 26.074 0 26.16L0 29.84C0 30.3705 0.210714 30.8792 0.585786 31.2542C0.960859 31.6293 1.46957 31.84 2 31.84H30C30.5304 31.84 31.0391 31.6293 31.4142 31.2542C31.7893 30.8792 32 30.3705 32 29.84V26.16C31.9966 26.074 31.9599 25.9926 31.8978 25.9329C31.8356 25.8732 31.7528 25.84 31.6667 25.84H0.333333ZM14 28.16H18C18.2664 28.1635 18.5208 28.2718 18.7079 28.4615C18.8951 28.6512 19 28.9069 19 29.1734C18.9965 29.4363 18.8896 29.6872 18.7024 29.8719C18.5153 30.0565 18.2629 30.1601 18 30.16H14C13.7371 30.1601 13.4847 30.0565 13.2976 29.8719C13.1104 29.6872 13.0035 29.4363 13 29.1734C13 28.9069 13.1049 28.6512 13.2921 28.4615C13.4792 28.2718 13.7336 28.1635 14 28.16Z" fill="#61637A"/>
<path d="M31.533 24.5067C31.5891 24.5047 31.6439 24.4891 31.6927 24.4612C31.7415 24.4334 31.7827 24.3941 31.813 24.3467C31.8386 24.2997 31.8521 24.2469 31.8521 24.1934C31.8521 24.1398 31.8386 24.0871 31.813 24.04C31.818 24.0002 31.818 23.9599 31.813 23.92L27.9996 16.4134C27.9878 16.3652 27.9878 16.3149 27.9996 16.2667V9.84003C27.9996 9.3096 27.7889 8.80089 27.4138 8.42582C27.0388 8.05075 26.5301 7.84003 25.9996 7.84003H24.9996C24.91 7.83659 24.8252 7.79854 24.7631 7.7339C24.7009 7.66926 24.6662 7.58305 24.6663 7.49337V6.5067C24.6662 6.41702 24.7009 6.33081 24.7631 6.26617C24.8252 6.20152 24.91 6.16348 24.9996 6.16003H25.9996C26.6162 6.16004 27.2076 5.91604 27.6448 5.48134C28.082 5.04663 28.3294 4.45656 28.333 3.84003V2.5067C28.333 1.88663 28.0876 1.29176 27.6504 0.852053C27.2131 0.412349 26.6197 0.163557 25.9996 0.160034H20.6663C20.0462 0.163557 19.4528 0.412349 19.0156 0.852053C18.5784 1.29176 18.3329 1.88663 18.333 2.5067V3.84003C18.3365 4.45656 18.5839 5.04663 19.0211 5.48134C19.4583 5.91604 20.0498 6.16004 20.6663 6.16003H21.6663C21.7559 6.16348 21.8407 6.20152 21.9028 6.26617C21.965 6.33081 21.9997 6.41702 21.9996 6.5067V7.49337C21.9997 7.58305 21.965 7.66926 21.9028 7.7339C21.8407 7.79854 21.7559 7.83659 21.6663 7.84003H14.333C14.2433 7.83659 14.1586 7.79854 14.0964 7.7339C14.0342 7.66926 13.9996 7.58305 13.9996 7.49337V2.5067C14.0004 2.20277 13.9319 1.90267 13.7993 1.62918C13.6668 1.35569 13.4736 1.11601 13.2345 0.928355C12.9955 0.740696 12.7168 0.609991 12.4196 0.54617C12.1225 0.482349 11.8147 0.487091 11.5196 0.560034L7.51962 1.56003C7.08712 1.66696 6.7027 1.91523 6.42735 2.26546C6.15199 2.6157 6.00145 3.04785 5.99962 3.49337V7.49337C6.00065 7.57326 5.97294 7.65087 5.92155 7.71205C5.87016 7.77324 5.7985 7.81392 5.71962 7.8267C5.23676 7.89491 4.79546 8.13718 4.47871 8.50795C4.16195 8.87872 3.99158 9.35245 3.99962 9.84003V16.2667C4.01149 16.3149 4.01149 16.3652 3.99962 16.4134L0.212956 23.92C0.207937 23.9599 0.207937 24.0002 0.212956 24.04C0.187282 24.0871 0.173828 24.1398 0.173828 24.1934C0.173828 24.2469 0.187282 24.2997 0.212956 24.3467C0.243171 24.3941 0.284443 24.4334 0.333219 24.4612C0.381995 24.4891 0.436814 24.5047 0.492956 24.5067H31.533ZM24.6663 10.5067C25.0663 10.5067 25.3996 10.9467 25.3996 11.4934V13.4934C25.3996 14.0534 25.0663 14.5067 24.6663 14.5067H7.39962C6.98629 14.5067 6.66629 14.0534 6.66629 13.4934V11.4934C6.66629 10.9467 6.98629 10.5067 7.39962 10.5067H24.6663ZM11.333 20.1734C11.333 20.527 11.1925 20.8661 10.9424 21.1162C10.6924 21.3662 10.3532 21.5067 9.99962 21.5067H8.66629C8.31267 21.5067 7.97353 21.3662 7.72348 21.1162C7.47343 20.8661 7.33296 20.527 7.33296 20.1734C7.33296 19.8197 7.47343 19.4806 7.72348 19.2306C7.97353 18.9805 8.31267 18.84 8.66629 18.84H9.99962C10.1747 18.84 10.3481 18.8745 10.5099 18.9415C10.6716 19.0085 10.8186 19.1067 10.9424 19.2306C11.0662 19.3544 11.1645 19.5014 11.2315 19.6631C11.2985 19.8249 11.333 19.9983 11.333 20.1734V20.1734ZM16.6663 21.5067H15.333C14.9793 21.5067 14.6402 21.3662 14.3901 21.1162C14.1401 20.8661 13.9996 20.527 13.9996 20.1734C13.9996 19.8197 14.1401 19.4806 14.3901 19.2306C14.6402 18.9805 14.9793 18.84 15.333 18.84H16.6663C17.0199 18.84 17.359 18.9805 17.6091 19.2306C17.8591 19.4806 17.9996 19.8197 17.9996 20.1734C17.9996 20.527 17.8591 20.8661 17.6091 21.1162C17.359 21.3662 17.0199 21.5067 16.6663 21.5067ZM23.9996 21.5067H22.6663C22.3127 21.5067 21.9735 21.3662 21.7235 21.1162C21.4734 20.8661 21.333 20.527 21.333 20.1734C21.333 19.8197 21.4734 19.4806 21.7235 19.2306C21.9735 18.9805 22.3127 18.84 22.6663 18.84H23.9996C24.3532 18.84 24.6924 18.9805 24.9424 19.2306C25.1925 19.4806 25.333 19.8197 25.333 20.1734C25.333 20.527 25.1925 20.8661 24.9424 21.1162C24.6924 21.3662 24.3532 21.5067 23.9996 21.5067ZM8.66629 4.28003C8.67693 4.21387 8.70653 4.15221 8.75149 4.10252C8.79645 4.05282 8.85485 4.01723 8.91962 4.00003L10.9196 3.49337C10.9682 3.48072 11.0191 3.48019 11.0679 3.49181C11.1167 3.50343 11.162 3.52686 11.1996 3.56003C11.2386 3.59033 11.2707 3.62861 11.2937 3.6723C11.3167 3.71598 11.3301 3.76408 11.333 3.81337V7.49337C11.333 7.58305 11.2983 7.66926 11.2362 7.7339C11.174 7.79854 11.0892 7.83659 10.9996 7.84003H8.99962C8.91001 7.83659 8.82522 7.79854 8.76307 7.7339C8.70091 7.66926 8.66622 7.58305 8.66629 7.49337V4.28003Z" fill="#61637A"/>
</svg>
