<svg width="19" height="19" viewBox="0 0 19 19" fill="none" xmlns="http://www.w3.org/2000/svg">
<g clip-path="url(#clip0_404_10701)">
<path d="M10.335 14.75H4.33496C3.24131 14.7488 2.19279 14.3138 1.41946 13.5405C0.646132 12.7672 0.211152 11.7187 0.209961 10.625L0.209961 4.625C0.211152 3.53135 0.646132 2.48283 1.41946 1.7095C2.19279 0.936171 3.24131 0.501191 4.33496 0.5L10.335 0.5C11.4286 0.501191 12.4771 0.936171 13.2505 1.7095C14.0238 2.48283 14.4588 3.53135 14.46 4.625V10.625C14.4588 11.7187 14.0238 12.7672 13.2505 13.5405C12.4771 14.3138 11.4286 14.7488 10.335 14.75ZM4.33496 2.75C3.83768 2.75 3.36077 2.94754 3.00914 3.29917C2.65751 3.65081 2.45996 4.12772 2.45996 4.625V10.625C2.45996 11.1223 2.65751 11.5992 3.00914 11.9508C3.36077 12.3025 3.83768 12.5 4.33496 12.5H10.335C10.8322 12.5 11.3092 12.3025 11.6608 11.9508C12.0124 11.5992 12.21 11.1223 12.21 10.625V4.625C12.21 4.12772 12.0124 3.65081 11.6608 3.29917C11.3092 2.94754 10.8322 2.75 10.335 2.75H4.33496ZM18.21 14.375V5.75C18.21 5.45163 18.0914 5.16548 17.8805 4.9545C17.6695 4.74353 17.3833 4.625 17.085 4.625C16.7866 4.625 16.5004 4.74353 16.2895 4.9545C16.0785 5.16548 15.96 5.45163 15.96 5.75V14.375C15.96 14.8723 15.7624 15.3492 15.4108 15.7008C15.0592 16.0525 14.5822 16.25 14.085 16.25H5.45996C5.16159 16.25 4.87544 16.3685 4.66447 16.5795C4.45349 16.7905 4.33496 17.0766 4.33496 17.375C4.33496 17.6734 4.45349 17.9595 4.66447 18.1705C4.87544 18.3815 5.16159 18.5 5.45996 18.5H14.085C15.1786 18.4988 16.2271 18.0638 17.0005 17.2905C17.7738 16.5172 18.2088 15.4687 18.21 14.375Z" fill="#919BBA"/>
</g>
<defs>
<clipPath id="clip0_404_10701">
<rect width="18" height="18" fill="white" transform="translate(0.209961 0.5)"/>
</clipPath>
</defs>
</svg>
