<svg width="14" height="14" viewBox="0 0 14 14" fill="none" xmlns="http://www.w3.org/2000/svg">
<path d="M3.09996 5.01719C3.00103 5.07523 2.91674 5.15518 2.85356 5.2509C2.79037 5.34662 2.74999 5.45556 2.7355 5.56933C2.72101 5.68311 2.73281 5.79869 2.76999 5.90719C2.80717 6.01569 2.86873 6.11421 2.94996 6.19519L7.05646 10.3017C7.13743 10.3829 7.23596 10.4445 7.34446 10.4817C7.45296 10.5188 7.56854 10.5306 7.68231 10.5161C7.79609 10.5017 7.90502 10.4613 8.00074 10.3981C8.09646 10.3349 8.17642 10.2506 8.23446 10.1517C8.72086 9.31487 8.86592 8.32274 8.63945 7.38169L11.904 5.30419C11.9987 5.24392 12.0787 5.16314 12.1381 5.06781C12.1975 4.97247 12.2347 4.86503 12.247 4.7534C12.2592 4.64177 12.2463 4.5288 12.2091 4.42284C12.1719 4.31688 12.1113 4.22063 12.032 4.14119L9.11045 1.21969C9.03105 1.14028 8.93483 1.07972 8.82889 1.04247C8.72295 1.00521 8.61 0.992229 8.49837 1.00447C8.38674 1.0167 8.27929 1.05385 8.18393 1.11317C8.08858 1.17249 8.00777 1.25246 7.94745 1.34719L5.86996 4.61219C4.92891 4.38572 3.93677 4.53078 3.09996 5.01719Z" stroke="#111928" stroke-linecap="round" stroke-linejoin="round"/>
<path d="M5.0015 8.24902L1 12.2505" stroke="#111928" stroke-linecap="round" stroke-linejoin="round"/>
</svg>
