<!DOCTYPE svg PUBLIC "-//W3C//DTD SVG 1.1//EN" "http://www.w3.org/Graphics/SVG/1.1/DTD/svg11.dtd">

<!-- Uploaded to: SVG Repo, www.svgrepo.com, Transformed by: SVG Repo Mixer Tools -->
<svg version="1.1" id="Uploaded to svgrepo.com" xmlns="http://www.w3.org/2000/svg" xmlns:xlink="http://www.w3.org/1999/xlink" width="800px" height="800px" viewBox="0 0 32 32" xml:space="preserve" fill="black">

<g id="SVGRepo_bgCarrier" stroke-width="0"/>

<g id="SVGRepo_tracerCarrier" stroke-linecap="round" stroke-linejoin="round"/>

<g id="SVGRepo_iconCarrier"> <style type="text/css"> .feather_een{fill:black;} </style> <path class="feather_een" d="M18.5,22h-5c-0.276,0-0.5-0.224-0.5-0.5l0,0c0-0.276,0.224-0.5,0.5-0.5h5c0.276,0,0.5,0.224,0.5,0.5 l0,0C19,21.776,18.776,22,18.5,22z M18.5,23h-5c-0.276,0-0.5,0.224-0.5,0.5l0,0c0,0.276,0.224,0.5,0.5,0.5h5 c0.276,0,0.5-0.224,0.5-0.5l0,0C19,23.224,18.776,23,18.5,23z M18.5,25h-5c-0.276,0-0.5,0.224-0.5,0.5l0,0 c0,0.276,0.224,0.5,0.5,0.5h5c0.276,0,0.5-0.224,0.5-0.5l0,0C19,25.224,18.776,25,18.5,25z M31,11v8c0,1.657-1.343,3-3,3h-1v5 c0,1.657-1.343,3-3,3H8c-1.657,0-3-1.343-3-3v-5H4c-1.657,0-3-1.343-3-3v-8c0-1.657,1.343-3,3-3h1V5c0-1.657,1.343-3,3-3h16 c1.657,0,3,1.343,3,3v3h1C29.657,8,31,9.343,31,11z M6,8h20V5c0-1.105-0.895-2-2-2H8C6.895,3,6,3.895,6,5V8z M26,18H6v9 c0,1.105,0.895,2,2,2h16c1.105,0,2-0.895,2-2V18z M28,9H4c-1.105,0-2,0.895-2,2v8c0,1.105,0.895,2,2,2h1v-3H4.5 C4.224,18,4,17.776,4,17.5l0,0C4,17.224,4.224,17,4.5,17h23c0.276,0,0.5,0.224,0.5,0.5l0,0c0,0.276-0.224,0.5-0.5,0.5H27v3h1 c1.105,0,2-0.895,2-2v-8C30,9.895,29.105,9,28,9z M5,12.5C5,11.672,5.672,11,6.5,11S8,11.672,8,12.5S7.328,14,6.5,14 S5,13.328,5,12.5z M6,12.5C6,12.776,6.224,13,6.5,13S7,12.776,7,12.5S6.776,12,6.5,12S6,12.224,6,12.5z"/> </g>

</svg>