<svg width="19" height="19" viewBox="0 0 19 19" fill="none" xmlns="http://www.w3.org/2000/svg">
<g clip-path="url(#clip0_404_10705)">
<path d="M6.02953 5.48805L8.11519 3.40165L8.13093 13.6252C8.13093 14.2465 8.6346 14.7502 9.25589 14.7502C9.87717 14.7502 10.3808 14.2465 10.3808 13.6252L10.3651 3.41441L12.4388 5.48808C12.8704 5.93497 13.5826 5.94734 14.0294 5.51571C14.4763 5.08408 14.4887 4.37192 14.0571 3.92503C14.048 3.91564 14.0388 3.90643 14.0294 3.8974L11.6205 1.48849C10.3026 0.170508 8.16574 0.170508 6.84775 1.48846L6.84772 1.48849L4.43885 3.89736C4.00722 4.34425 4.01959 5.05642 4.46648 5.48805C4.90243 5.90909 5.59357 5.90909 6.02953 5.48805Z" fill="#919BBA"/>
<path d="M17.0842 11.3747C16.4629 11.3747 15.9593 11.8784 15.9593 12.4996V15.9427C15.9589 16.112 15.8218 16.2491 15.6526 16.2495H2.76659C2.59735 16.249 2.46025 16.112 2.45986 15.9427V12.4996C2.45986 11.8784 1.9562 11.3747 1.33491 11.3747C0.713623 11.3747 0.209961 11.8784 0.209961 12.4996V15.9427C0.211613 17.3541 1.3553 18.4977 2.76659 18.4994H15.6525C17.0638 18.4977 18.2075 17.354 18.2091 15.9427V12.4996C18.2092 11.8784 17.7055 11.3747 17.0842 11.3747Z" fill="#919BBA"/>
</g>
<defs>
<clipPath id="clip0_404_10705">
<rect width="18" height="18" fill="white" transform="translate(0.209961 0.5)"/>
</clipPath>
</defs>
</svg>
