<svg width="105" height="104" viewBox="0 0 105 104" fill="none" xmlns="http://www.w3.org/2000/svg">
<path d="M52.5 0C42.2154 0 32.1617 3.04975 23.6104 8.76358C15.059 14.4774 8.39404 22.5987 4.45829 32.1005C0.522531 41.6022 -0.507243 52.0577 1.49919 62.1447C3.50562 72.2317 8.45814 81.4972 15.7305 88.7696C23.0028 96.0419 32.2683 100.994 42.3553 103.001C52.4423 105.007 62.8978 103.977 72.3996 100.042C81.9013 96.106 90.0226 89.441 95.7364 80.8897C101.45 72.3383 104.5 62.2846 104.5 52C104.5 38.2087 99.0215 24.9823 89.2696 15.2304C79.5177 5.47856 66.2913 0 52.5 0V0ZM82.53 35.5333L52.8467 75.79C52.5013 76.2607 52.0643 76.6568 51.5621 76.9544C51.0598 77.252 50.5025 77.4451 49.9238 77.522C49.345 77.5989 48.7567 77.558 48.1941 77.4019C47.6316 77.2457 47.1064 76.9775 46.65 76.6133L25.46 59.67C25.0149 59.3124 24.6448 58.8704 24.371 58.3693C24.0973 57.8682 23.9253 57.3179 23.8649 56.7501C23.8045 56.1823 23.8569 55.6082 24.0191 55.0607C24.1813 54.5133 24.4501 54.0032 24.81 53.56C25.5301 52.6862 26.5635 52.129 27.6892 52.0075C28.8149 51.886 29.9435 52.21 30.8334 52.91L48.5134 67.0367L75.5534 30.3333C76.2356 29.4196 77.2506 28.8117 78.3781 28.6413C79.5057 28.471 80.6549 28.752 81.5767 29.4233C82.0448 29.7585 82.4413 30.1837 82.7433 30.6739C83.0452 31.1641 83.2464 31.7095 83.3352 32.2783C83.4239 32.8472 83.3984 33.428 83.2602 33.9869C83.1219 34.5457 82.8737 35.0715 82.53 35.5333Z" fill="#13B47A"/>
</svg>
