<?xml version="1.0" encoding="utf-8"?>
<!-- Generator: Adobe Illustrator 23.0.6, SVG Export Plug-In . SVG Version: 6.00 Build 0)  -->
<svg version="1.1" id="Layer_1" xmlns="http://www.w3.org/2000/svg" xmlns:xlink="http://www.w3.org/1999/xlink" x="0px" y="0px"
	 viewBox="0 0 1002.48 528.38" style="enable-background:new 0 0 1002.48 528.38;" xml:space="preserve">
<style type="text/css">
	.st0{fill:url(#SVGID_1_);}
	.st1{fill:#FFFFFF;}
	.st2{fill:#EC8623;}
	.st3{fill:#FFFFFF;}
	.st4{fill:url(#SVGID_2_);}
	.st5{fill:url(#SVGID_3_);}
	.st6{fill:url(#SVGID_4_);}
	.st7{fill:url(#SVGID_5_);}
	.st8{fill:#1D1D1B;}
	.st9{fill:url(#SVGID_6_);}
</style>
<g>
	<g>
		<g>
			<path class="st1" d="M167.43,379.76l-1.15,4.69h-9.11l-6.23,25.96h-5.57l6.24-25.96h-9.11l1.1-4.69H167.43z"/>
			<path class="st1" d="M191.62,379.76h5.57l-7.34,30.64h-5.57l3.31-13.62h-12.56l-3.31,13.62h-5.57l7.34-30.64h5.57l-2.95,12.29
				h12.56L191.62,379.76z"/>
			<path class="st1" d="M198.69,410.41l7.34-30.64h19.01l-1.11,4.64h-13.5l-1.83,7.69h11.97l-1.11,4.55h-11.9l-2.21,9.11h14.5
				l-1.1,4.64H198.69z"/>
			<path class="st1" d="M238,410.41l7.34-30.64h19.01l-1.11,4.64h-13.5l-1.83,7.69h11.97l-1.11,4.55h-11.9l-2.21,9.11h14.5
				l-1.1,4.64H238z"/>
			<path class="st1" d="M278.39,410.41h-5.29c-0.92-4.74-1.74-9.67-2.45-14.77c-0.71-5.1-1.32-10.39-1.83-15.88h5.88
				c0.33,4.34,0.69,8.57,1.09,12.69c0.4,4.13,0.85,7.92,1.36,11.36c1.09-1.65,2.22-3.45,3.39-5.39c1.17-1.94,2.34-3.96,3.52-6.03
				c1.18-2.08,2.33-4.19,3.45-6.32c1.12-2.14,2.18-4.24,3.19-6.3h6.06c-2.78,5.22-5.66,10.4-8.66,15.54
				C285.12,400.45,281.87,405.48,278.39,410.41z"/>
			<path class="st1" d="M295.09,410.41l7.34-30.64h19.01l-1.11,4.64h-13.5l-1.83,7.69h11.97l-1.11,4.55h-11.9l-2.21,9.11h14.5
				l-1.1,4.64H295.09z"/>
			<path class="st1" d="M337.67,379.45c3.65,0,6.43,0.76,8.34,2.28c1.9,1.52,2.85,3.53,2.85,6.04c0,1.12-0.15,2.19-0.46,3.2
				c-0.31,1.02-0.8,1.96-1.46,2.83c-0.66,0.87-1.52,1.64-2.56,2.32c-1.05,0.68-2.31,1.24-3.78,1.68c0.38,0.68,0.79,1.49,1.24,2.45
				c0.44,0.96,0.9,1.99,1.37,3.1c0.47,1.1,0.93,2.26,1.37,3.47c0.44,1.21,0.84,2.4,1.19,3.58h-5.86c-0.35-1.06-0.72-2.14-1.11-3.23
				c-0.39-1.09-0.79-2.14-1.2-3.16c-0.41-1.02-0.84-1.97-1.26-2.87c-0.43-0.9-0.85-1.7-1.26-2.41c-0.27,0.03-0.59,0.04-0.97,0.04
				c-0.38,0-0.72,0-1.02,0h-2.57l-2.78,11.63h-5.58l7.21-30.2c1.41-0.3,2.85-0.49,4.31-0.6
				C335.13,379.51,336.46,379.45,337.67,379.45z M343.2,388.39c0-1.62-0.59-2.73-1.77-3.34c-1.18-0.6-2.76-0.91-4.73-0.91
				c-0.41,0-0.86,0.01-1.33,0.04c-0.47,0.03-0.94,0.07-1.41,0.13l-2.39,9.99h2.48c1.33,0,2.55-0.11,3.67-0.33
				c1.12-0.22,2.08-0.57,2.9-1.04c0.81-0.47,1.44-1.08,1.9-1.84C342.97,390.35,343.2,389.45,343.2,388.39z"/>
			<path class="st1" d="M363.89,393.3c1.83-2.21,3.6-4.43,5.33-6.66c1.72-2.22,3.34-4.52,4.84-6.88h6.28
				c-1.15,1.62-2.3,3.2-3.45,4.73c-1.15,1.54-2.32,3.06-3.52,4.58c-1.19,1.52-2.43,3.03-3.69,4.53c-1.27,1.5-2.58,3.04-3.94,4.6
				l-2.92,12.2h-5.57l2.92-12.2c-1.21-3.1-2.31-6.17-3.29-9.22c-0.99-3.05-1.91-6.13-2.76-9.22h5.93c0.5,2.27,1.08,4.54,1.72,6.81
				C362.42,388.84,363.12,391.08,363.89,393.3z"/>
			<path class="st1" d="M407.93,391.52c0,2.74-0.44,5.29-1.33,7.65c-0.88,2.36-2.2,4.39-3.94,6.1c-1.74,1.71-3.91,3.05-6.52,4.02
				c-2.61,0.97-5.64,1.46-9.09,1.46c-1.24,0-2.62-0.07-4.16-0.2c-1.53-0.13-2.95-0.35-4.25-0.64l7.12-29.67
				c1.44-0.32,2.9-0.54,4.38-0.64c1.47-0.1,2.83-0.15,4.07-0.15c2.24,0,4.22,0.29,5.93,0.86c1.71,0.57,3.14,1.38,4.29,2.43
				c1.15,1.05,2.02,2.31,2.61,3.8C407.64,388.04,407.93,389.7,407.93,391.52z M385.21,405.85c0.32,0.06,0.7,0.1,1.13,0.11
				c0.43,0.02,1.1,0.02,2.01,0.02c2.12,0,4.04-0.34,5.75-1.02c1.71-0.68,3.16-1.64,4.35-2.9c1.19-1.25,2.11-2.75,2.76-4.51
				c0.65-1.75,0.97-3.71,0.97-5.86c0-2.33-0.66-4.17-1.99-5.53c-1.33-1.36-3.49-2.03-6.5-2.03c-0.77,0-1.38,0.01-1.83,0.04
				c-0.46,0.03-0.95,0.07-1.48,0.13L385.21,405.85z"/>
			<path class="st1" d="M431.28,410.41c-0.07-1.24-0.16-2.48-0.27-3.7c-0.11-1.22-0.23-2.41-0.35-3.56h-12.5
				c-0.64,1.16-1.3,2.33-1.96,3.53c-0.66,1.19-1.34,2.43-2.03,3.73h-5.97c1.8-3.13,3.52-6.07,5.16-8.84
				c1.64-2.77,3.23-5.41,4.78-7.92c1.55-2.51,3.08-4.9,4.6-7.19c1.52-2.28,3.05-4.52,4.58-6.7h5.18c0.95,4.39,1.76,9.19,2.44,14.39
				c0.68,5.2,1.33,10.62,1.95,16.25H431.28z M428.69,385.6c-1.13,1.74-2.37,3.7-3.74,5.86c-1.37,2.17-2.82,4.59-4.36,7.27h9.6
				c-0.16-2.1-0.37-4.24-0.63-6.44C429.31,390.1,429.02,387.87,428.69,385.6z"/>
			<path class="st1" d="M451.8,393.3c1.83-2.21,3.6-4.43,5.33-6.66c1.72-2.22,3.34-4.52,4.84-6.88h6.28
				c-1.15,1.62-2.3,3.2-3.45,4.73c-1.15,1.54-2.32,3.06-3.52,4.58c-1.19,1.52-2.43,3.03-3.69,4.53c-1.27,1.5-2.58,3.04-3.94,4.6
				l-2.92,12.2h-5.57l2.92-12.2c-1.21-3.1-2.31-6.17-3.29-9.22c-0.99-3.05-1.91-6.13-2.76-9.22h5.93c0.5,2.27,1.08,4.54,1.72,6.81
				C450.32,388.84,451.03,391.08,451.8,393.3z"/>
			<path class="st1" d="M488.01,410.76c-1.5,0-3.09-0.07-4.75-0.2c-1.67-0.13-3.15-0.35-4.44-0.64l7.12-29.67
				c1.33-0.3,2.73-0.5,4.2-0.62c1.47-0.12,2.96-0.18,4.47-0.18c1.24,0,2.5,0.09,3.78,0.27c1.28,0.18,2.44,0.53,3.47,1.04
				c1.03,0.51,1.88,1.22,2.54,2.12c0.66,0.9,1,2.06,1,3.47c0,1.56-0.44,3.04-1.3,4.42c-0.87,1.39-2.34,2.51-4.4,3.36
				c1.3,0.53,2.3,1.3,3.01,2.3c0.71,1,1.06,2.17,1.06,3.49c0,3.45-1.35,6.12-4.05,8C497.01,409.82,493.11,410.76,488.01,410.76z
				 M487.53,396.57l-2.28,9.42c0.41,0.06,0.96,0.11,1.64,0.15c0.68,0.05,1.43,0.07,2.26,0.07c0.98,0,1.99-0.07,3.05-0.22
				c1.06-0.15,2.02-0.43,2.88-0.84c0.86-0.41,1.57-1,2.15-1.77c0.58-0.77,0.86-1.75,0.86-2.96c0-1.12-0.43-2.04-1.28-2.76
				s-2.27-1.08-4.24-1.08H487.53z M488.57,392.28h4.25c0.92,0,1.8-0.09,2.66-0.27c0.85-0.18,1.6-0.46,2.23-0.86
				c0.64-0.4,1.14-0.89,1.53-1.48c0.38-0.59,0.58-1.31,0.58-2.17c0-1.36-0.51-2.29-1.52-2.79s-2.38-0.75-4.09-0.75
				c-0.68,0-1.36,0.02-2.03,0.07c-0.68,0.04-1.22,0.09-1.64,0.15L488.57,392.28z"/>
			<path class="st1" d="M515.82,379.76h5.57l-7.34,30.64h-5.57L515.82,379.76z"/>
			<path class="st1" d="M551.68,379.76l-1.15,4.69h-9.11l-6.23,25.96h-5.57l6.24-25.96h-9.11l1.1-4.69H551.68z"/>
			<path class="st1" d="M572.33,409.08c-0.97,0.5-2.21,0.96-3.71,1.37c-1.5,0.41-3.33,0.62-5.48,0.62c-1.89,0-3.57-0.29-5.04-0.86
				c-1.47-0.58-2.73-1.41-3.76-2.5c-1.03-1.09-1.82-2.4-2.37-3.94s-0.82-3.26-0.82-5.17c0-2.48,0.41-4.89,1.24-7.23
				c0.83-2.34,2.02-4.43,3.58-6.26s3.46-3.29,5.71-4.4c2.24-1.11,4.77-1.66,7.6-1.66c1.86,0,3.47,0.21,4.84,0.62
				c1.37,0.41,2.57,0.91,3.6,1.5l-2.12,4.47c-0.94-0.56-1.95-0.99-3.03-1.31c-1.08-0.31-2.29-0.46-3.65-0.46
				c-1.86,0-3.52,0.41-5,1.24c-1.47,0.83-2.73,1.91-3.78,3.25s-1.84,2.87-2.39,4.58c-0.55,1.71-0.82,3.45-0.82,5.22
				c0,2.74,0.6,4.77,1.79,6.08c1.19,1.31,2.94,1.97,5.24,1.97c1.77,0,3.27-0.2,4.51-0.6c1.24-0.4,2.3-0.8,3.18-1.22L572.33,409.08z"
				/>
			<path class="st1" d="M590.19,411.07c-1.71,0-3.28-0.27-4.71-0.82c-1.43-0.54-2.67-1.34-3.71-2.37c-1.05-1.03-1.86-2.31-2.43-3.85
				c-0.58-1.53-0.86-3.29-0.86-5.26c0-2.36,0.38-4.72,1.15-7.07c0.77-2.36,1.89-4.47,3.38-6.35c1.49-1.87,3.32-3.39,5.51-4.56
				c2.18-1.16,4.69-1.75,7.52-1.75c1.71,0,3.29,0.27,4.73,0.82c1.44,0.55,2.68,1.34,3.71,2.37c1.03,1.03,1.83,2.31,2.41,3.85
				c0.58,1.53,0.86,3.29,0.86,5.26c0,2.36-0.38,4.72-1.15,7.07c-0.77,2.36-1.89,4.47-3.36,6.35c-1.47,1.87-3.31,3.39-5.5,4.56
				C595.54,410.49,593.02,411.07,590.19,411.07z M595.46,383.88c-1.68,0-3.21,0.42-4.58,1.26c-1.37,0.84-2.54,1.94-3.51,3.3
				c-0.97,1.35-1.73,2.9-2.28,4.62c-0.55,1.72-0.82,3.47-0.82,5.24c0,2.42,0.51,4.35,1.55,5.79c1.03,1.45,2.68,2.17,4.95,2.17
				c1.68,0,3.21-0.42,4.6-1.26c1.39-0.84,2.56-1.94,3.54-3.29c0.97-1.36,1.73-2.9,2.28-4.62c0.54-1.72,0.82-3.47,0.82-5.24
				c0-2.42-0.52-4.35-1.57-5.79C599.39,384.6,597.73,383.88,595.46,383.88z"/>
			<path class="st1" d="M618.49,379.76h5.57l-7.34,30.64h-5.57L618.49,379.76z"/>
			<path class="st1" d="M645.76,410.41c-0.56-1.71-1.2-3.55-1.92-5.53c-0.72-1.97-1.49-3.95-2.29-5.93
				c-0.81-1.97-1.65-3.9-2.51-5.77c-0.87-1.87-1.74-3.59-2.63-5.15l-5.36,22.37h-5.48l7.34-30.64h4.48
				c0.82,1.33,1.68,2.85,2.58,4.56c0.9,1.71,1.77,3.5,2.62,5.37c0.85,1.87,1.68,3.75,2.47,5.64c0.79,1.88,1.49,3.67,2.07,5.35
				l4.92-20.92h5.53l-7.34,30.64H645.76z"/>
			<path class="st1" d="M696.83,383.26c0.09,1.59,0.2,3.26,0.33,5c0.13,1.74,0.29,3.47,0.46,5.2c0.17,1.72,0.35,3.41,0.53,5.06
				c0.18,1.65,0.35,3.18,0.53,4.6c0.83-1.56,1.68-3.28,2.57-5.15c0.89-1.87,1.77-3.81,2.66-5.81c0.89-2,1.76-4.06,2.61-6.17
				c0.86-2.11,1.68-4.18,2.48-6.21h5.93c-2.33,5.69-4.69,11.07-7.06,16.14c-2.38,5.07-4.89,9.9-7.55,14.5h-5.41
				c-0.23-1.59-0.46-3.16-0.68-4.69c-0.22-1.53-0.43-3.09-0.61-4.66c-0.19-1.58-0.37-3.18-0.53-4.82c-0.16-1.64-0.31-3.34-0.46-5.11
				c-1.84,3.39-3.66,6.67-5.45,9.84c-1.8,3.17-3.7,6.32-5.72,9.44h-5.42c-0.23-2.56-0.4-5.11-0.5-7.65
				c-0.1-2.53-0.15-5.13-0.15-7.78c0-4.83,0.17-9.9,0.5-15.21h5.57c-0.18,2.83-0.33,5.64-0.44,8.43c-0.12,2.78-0.18,5.61-0.18,8.47
				c0,1.06,0,2.13,0,3.21s0.03,2.16,0.09,3.25c0.92-1.5,1.86-3.09,2.84-4.75c0.97-1.67,1.94-3.35,2.88-5.06
				c0.95-1.71,1.87-3.42,2.77-5.13c0.9-1.71,1.75-3.35,2.55-4.91H696.83z"/>
			<path class="st1" d="M733.33,410.41c-0.07-1.24-0.16-2.48-0.27-3.7c-0.11-1.22-0.23-2.41-0.35-3.56h-12.5
				c-0.64,1.16-1.3,2.33-1.96,3.53c-0.66,1.19-1.34,2.43-2.03,3.73h-5.97c1.8-3.13,3.52-6.07,5.16-8.84s3.23-5.41,4.78-7.92
				c1.55-2.51,3.08-4.9,4.6-7.19c1.52-2.28,3.05-4.52,4.58-6.7h5.18c0.95,4.39,1.76,9.19,2.44,14.39c0.68,5.2,1.33,10.62,1.95,16.25
				H733.33z M730.74,385.6c-1.13,1.74-2.37,3.7-3.74,5.86c-1.37,2.17-2.82,4.59-4.36,7.27h9.6c-0.16-2.1-0.37-4.24-0.63-6.44
				C731.36,390.1,731.07,387.87,730.74,385.6z"/>
			<path class="st1" d="M764.41,405.72l-1.1,4.69h-19.15l7.34-30.64h5.57l-6.22,25.96H764.41z"/>
			<path class="st1" d="M789.88,405.72l-1.1,4.69h-19.15l7.34-30.64h5.57l-6.22,25.96H789.88z"/>
			<path class="st1" d="M795.1,410.41l7.34-30.64h19.01l-1.11,4.64h-13.5l-1.83,7.69h11.97l-1.11,4.55h-11.9l-2.21,9.11h14.5
				l-1.1,4.64H795.1z"/>
			<path class="st1" d="M850.95,379.76l-1.15,4.69h-9.11l-6.23,25.96h-5.57l6.24-25.96h-9.11l1.1-4.69H850.95z"/>
		</g>
	</g>
	<g>
		<linearGradient id="SVGID_1_" gradientUnits="userSpaceOnUse" x1="159.0818" y1="300.4249" x2="302.6155" y2="117.2044">
			<stop  offset="0" style="stop-color:#F9BC18"/>
			<stop  offset="1" style="stop-color:#E75824"/>
		</linearGradient>
		<path class="st0" d="M259.17,95.97c-0.1-0.03-0.21-0.06-0.32-0.08c-9.4-2.33-18.81-3.45-28.08-3.45v0h-0.04v0
			c-52.2,0.02-99.67,35.42-112.8,88.37c-15.47,62.37,22.55,125.46,84.92,140.93c9.41,2.33,18.82,3.45,28.09,3.45
			c52.21,0,99.7-35.41,112.83-88.37C359.21,174.58,321.37,111.58,259.17,95.97z M334.64,234.56c-11.86,47.82-54.5,81.22-103.7,81.22
			c-8.65,0-17.34-1.07-25.83-3.17c-27.72-6.87-51.11-24.13-65.85-48.6c-14.74-24.47-19.07-53.21-12.2-80.93
			c11.86-47.81,54.55-81.2,103.73-81.22c8.64,0,17.32,1.07,25.87,3.19l0.11,0.03l0.11,0.03
			C313.91,119.41,348.8,177.48,334.64,234.56z"/>
		<path class="st1" d="M255.1,193.23c-3.34,13.37-23.72,6.51-30.34,4.88l5.85-23.39c6.51,1.6,27.83,4.68,24.39,18.51H255.1z
			 M251.46,231.03c-3.61,14.56-28.13,6.68-36.08,4.71l6.45-25.83C229.78,211.91,255.24,215.82,251.46,231.03z M278.19,193.44
			c2.1-14.23-8.72-21.88-23.39-26.96l4.81-19.28l-11.86-2.94l-4.68,18.78c-3.07-0.77-6.25-1.5-9.39-2.21l4.68-18.98l-11.73-2.94
			l-4.81,19.28l-7.48-1.67l-16.2-4.04l-3.11,12.53c0,0,8.1,1.98,8.52,2.14c2.62,0.53,5.74,3.35,5.48,6.68l-13.17,52.79
			c-0.72,2.25-3.12,3.49-5.38,2.77h0c-0.25-0.07-8.55-2.1-8.55-2.1l-5.81,13.37l15.27,3.78l8.35,2.17l-4.84,19.48l11.73,2.94
			l4.81-19.28c3.16,0.87,6.27,1.67,9.32,2.41l-4.74,19.35l11.73,2.91l4.84-19.44c20.05,3.78,35.05,2.27,41.4-15.84
			c5.11-14.57-0.27-22.95-10.79-28.43C270.87,208.91,276.55,204,278.19,193.44L278.19,193.44z"/>
		<g>
			<path class="st1" d="M450.9,173.47c7.28,0,13.57,1.29,18.88,3.87c5.31,2.58,9.7,6.06,13.19,10.46c3.49,4.4,6.06,9.55,7.73,15.47
				c1.67,5.91,2.5,12.28,2.5,19.1c0,10.46-1.93,20.36-5.8,29.68c-3.87,9.33-9.14,17.44-15.81,24.34
				c-6.67,6.9-14.56,12.36-23.65,16.37c-9.1,4.02-18.96,6.03-29.57,6.03c-1.36,0-3.75-0.04-7.16-0.11
				c-3.41-0.08-7.32-0.42-11.71-1.02c-4.4-0.61-9.06-1.52-13.99-2.73c-4.93-1.21-9.59-2.88-13.99-5l39.35-165.35l35.26-5.46
				l-14.1,58.68c3.03-1.37,6.06-2.42,9.1-3.19C444.15,173.85,447.41,173.47,450.9,173.47z M421.33,270.82
				c5.31,0,10.31-1.28,15.01-3.87c4.7-2.58,8.76-6.03,12.17-10.35c3.41-4.32,6.1-9.21,8.07-14.67c1.97-5.46,2.96-11.15,2.96-17.06
				c0-7.28-1.22-12.96-3.64-17.06c-2.43-4.09-6.9-6.14-13.42-6.14c-2.13,0-4.89,0.38-8.3,1.14c-3.41,0.76-6.48,2.35-9.21,4.78
				l-15.01,62.32c0.91,0.15,1.7,0.3,2.39,0.46c0.68,0.15,1.4,0.27,2.16,0.34c0.76,0.08,1.67,0.11,2.73,0.11
				C418.3,270.82,419.66,270.82,421.33,270.82z"/>
			<path class="st1" d="M547.33,297.88c-10.77,0-19.22-1.41-25.36-4.21c-6.14-2.8-10.54-6.63-13.19-11.48
				c-2.65-4.85-3.94-10.42-3.87-16.72c0.08-6.29,0.95-13,2.62-20.13l28.89-120.77l35.25-5.46l-31.62,131.01
				c-0.61,2.73-0.95,5.23-1.02,7.51c-0.08,2.28,0.34,4.29,1.25,6.03c0.91,1.75,2.46,3.15,4.66,4.21c2.2,1.06,5.27,1.74,9.21,2.05
				L547.33,297.88z"/>
			<path class="st1" d="M598.51,295.61h-33.66l28.43-119.63h33.89L598.51,295.61z"/>
			<path class="st1" d="M652.18,181.43c2.58-0.76,5.42-1.63,8.53-2.62c3.11-0.98,6.6-1.89,10.46-2.73
				c3.87-0.83,8.19-1.51,12.97-2.05c4.78-0.53,10.2-0.8,16.26-0.8c17.89,0,30.17,5.16,36.85,15.47c6.67,10.31,7.81,24.41,3.41,42.3
				l-15.47,64.59H691.3l15.01-63.23c0.91-3.94,1.63-7.77,2.16-11.48c0.53-3.72,0.49-6.97-0.11-9.78c-0.61-2.8-2.01-5.08-4.21-6.82
				c-2.2-1.74-5.57-2.62-10.12-2.62c-4.4,0-8.87,0.46-13.42,1.37l-22.06,92.57h-33.89L652.18,181.43z"/>
			<path class="st1" d="M796.6,219.19c9.1-7.28,17.66-14.71,25.7-22.29c8.03-7.58,14.93-14.56,20.7-20.92h38.21
				c-8.49,9.4-17.32,18.61-26.5,27.63c-9.18,9.02-19.68,18.61-31.5,28.77c3.18,3.94,6.4,8.49,9.67,13.65
				c3.26,5.16,6.37,10.54,9.32,16.15c2.96,5.61,5.69,11.3,8.19,17.06c2.5,5.76,4.59,11.22,6.25,16.38h-37.75
				c-1.37-3.94-3.07-8.26-5.12-12.96c-2.05-4.7-4.32-9.36-6.82-13.99c-2.5-4.62-5.12-9.13-7.85-13.53
				c-2.73-4.4-5.46-8.34-8.19-11.83l-12.74,52.31h-33.66l40.94-171.04l35.25-5.46L796.6,219.19z"/>
			<path class="st1" d="M639.1,139.85c0,3.15-0.6,6.08-1.8,8.81c-1.2,2.73-2.84,5.11-4.9,7.14c-2.07,2.03-4.49,3.64-7.27,4.84
				c-2.77,1.2-5.73,1.8-8.88,1.8c-3.15,0-6.11-0.6-8.88-1.8c-2.77-1.2-5.17-2.81-7.2-4.84c-2.03-2.03-3.64-4.41-4.84-7.14
				c-1.2-2.73-1.8-5.67-1.8-8.81c0-3.06,0.6-5.98,1.8-8.75c1.2-2.77,2.81-5.17,4.84-7.2c2.03-2.03,4.43-3.64,7.2-4.84
				c2.77-1.2,5.73-1.8,8.88-1.8c3.15,0,6.1,0.6,8.88,1.8c2.77,1.2,5.19,2.81,7.27,4.84c2.07,2.03,3.7,4.43,4.9,7.2
				C638.5,133.87,639.1,136.78,639.1,139.85z"/>
		</g>
	</g>
</g>
</svg>
