<?xml version="1.0" encoding="utf-8"?>
<!-- Generator: Adobe Illustrator 23.0.6, SVG Export Plug-In . SVG Version: 6.00 Build 0)  -->
<svg version="1.1" id="Layer_1" xmlns="http://www.w3.org/2000/svg" xmlns:xlink="http://www.w3.org/1999/xlink" x="0px" y="0px"
	 viewBox="0 0 769 233.4" style="enable-background:new 0 0 769 233.4;" xml:space="preserve">
<style type="text/css">
	.st0{fill:url(#SVGID_1_);}
	.st1{fill:#010101;}
</style>
<g>
	
		<linearGradient id="SVGID_1_" gradientUnits="userSpaceOnUse" x1="44.7374" y1="23.9367" x2="188.6961" y2="207.6996" gradientTransform="matrix(1 0 0 -1 0 232.54)">
		<stop  offset="0" style="stop-color:#FEBE13"/>
		<stop  offset="0.5" style="stop-color:#EF8B22"/>
		<stop  offset="1" style="stop-color:#F15822"/>
	</linearGradient>
	<path class="st0" d="M145.1,3.5c-0.1,0-0.2-0.1-0.3-0.1C135.4,1.1,125.9,0,116.6,0l0,0h0l0,0C64.2,0,16.6,35.5,3.5,88.6
		C-12.1,151.2,26.1,214.5,88.6,230c9.4,2.3,18.9,3.5,28.2,3.5c52.4,0,100-35.5,113.2-88.6C245.5,82.4,207.5,19.2,145.1,3.5z
		 M220.8,142.5c-11.9,48-54.7,81.5-104,81.5c-8.7,0-17.4-1.1-25.9-3.2c-27.8-6.9-51.3-24.2-66.1-48.7S5.7,118.7,12.6,90.9
		C24.5,43,67.3,9.5,116.7,9.4c8.7,0,17.4,1.1,26,3.2l0.1,0l0.1,0C200,27.1,235,85.3,220.8,142.5z"/>
	<path class="st1" d="M141,101.1c-3.4,13.4-23.8,6.5-30.4,4.9l5.9-23.5c6.5,1.6,27.9,4.7,24.5,18.6L141,101.1L141,101.1z M137.4,139
		c-3.6,14.6-28.2,6.7-36.2,4.7l6.5-25.9C115.6,119.8,141.2,123.8,137.4,139z M164.2,101.3c2.1-14.3-8.8-21.9-23.5-27l4.8-19.3
		L133.7,52L129,70.8c-3.1-0.8-6.3-1.5-9.4-2.2l4.7-19l-11.8-2.9l-4.8,19.3l-7.5-1.7l-16.3-4.1l-3.1,12.6c0,0,8.1,2,8.6,2.1
		c2.6,0.5,5.8,3.4,5.5,6.7l-13.2,52.9c-0.7,2.3-3.1,3.5-5.4,2.8l0,0c-0.3-0.1-8.6-2.1-8.6-2.1l-5.8,13.4l15.3,3.8l8.4,2.2l-4.9,19.5
		l11.8,3l4.8-19.3c3.2,0.9,6.3,1.7,9.4,2.4l-4.8,19.4l11.8,2.9l4.9-19.5c20.1,3.8,35.2,2.3,41.5-15.9c5.1-14.6-0.3-23-10.8-28.5
		C156.9,116.8,162.6,111.9,164.2,101.3L164.2,101.3z"/>
	<g>
		<path class="st1" d="M337.4,81.3c7.3,0,13.6,1.3,18.9,3.9c5.3,2.6,9.7,6.1,13.2,10.5s6.1,9.6,7.8,15.5c1.7,5.9,2.5,12.3,2.5,19.2
			c0,10.5-1.9,20.4-5.8,29.8s-9.2,17.5-15.9,24.4s-14.6,12.4-23.7,16.4c-9.1,4-19,6-29.7,6c-1.4,0-3.8,0-7.2-0.1
			c-3.4-0.1-7.3-0.4-11.8-1s-9.1-1.5-14-2.7c-4.9-1.2-9.6-2.9-14-5l39.5-165.8l35.4-5.5l-14.1,58.9c3-1.4,6.1-2.4,9.1-3.2
			C330.6,81.7,333.9,81.3,337.4,81.3z M307.8,178.9c5.3,0,10.3-1.3,15.1-3.9c4.7-2.6,8.8-6,12.2-10.4c3.4-4.3,6.1-9.2,8.1-14.7
			c2-5.5,3-11.2,3-17.1c0-7.3-1.2-13-3.6-17.1c-2.4-4.1-6.9-6.2-13.5-6.2c-2.1,0-4.9,0.4-8.3,1.1c-3.4,0.8-6.5,2.4-9.2,4.8
			L296.4,178c0.9,0.1,1.7,0.3,2.4,0.5c0.7,0.1,1.4,0.3,2.2,0.3c0.8,0.1,1.7,0.1,2.7,0.1C304.7,178.9,306.1,178.9,307.8,178.9z"/>
		<path class="st1" d="M434.1,206.1c-10.8,0-19.3-1.4-25.4-4.2c-6.2-2.8-10.6-6.6-13.2-11.5s-4-10.5-3.9-16.8c0.1-6.3,1-13,2.6-20.2
			l29-121.1l35.4-5.5l-31.7,131.4c-0.6,2.7-1,5.3-1,7.5s0.3,4.3,1.3,6c0.9,1.8,2.5,3.2,4.7,4.2c2.2,1.1,5.3,1.8,9.2,2L434.1,206.1z"
			/>
		<path class="st1" d="M485.5,203.8h-33.8l28.5-120h34L485.5,203.8z"/>
		<path class="st1" d="M539.3,89.3c2.6-0.8,5.4-1.6,8.5-2.6c3.1-1,6.6-1.9,10.5-2.7c3.9-0.8,8.2-1.5,13-2.1
			c4.8-0.5,10.2-0.8,16.3-0.8c17.9,0,30.3,5.2,37,15.5c6.7,10.3,7.8,24.5,3.4,42.4l-15.5,64.8h-34l15.1-63.4
			c0.9-3.9,1.6-7.8,2.2-11.5c0.5-3.7,0.5-7-0.1-9.8c-0.6-2.8-2-5.1-4.2-6.8c-2.2-1.8-5.6-2.6-10.2-2.6c-4.4,0-8.9,0.5-13.5,1.4
			l-22.1,92.8h-34L539.3,89.3z"/>
		<path class="st1" d="M684.1,127.1c9.1-7.3,17.7-14.8,25.8-22.4c8.1-7.6,15-14.6,20.8-21H769c-8.5,9.4-17.4,18.7-26.6,27.7
			s-19.7,18.7-31.6,28.9c3.2,4,6.4,8.5,9.7,13.7c3.3,5.2,6.4,10.6,9.3,16.2c3,5.6,5.7,11.3,8.2,17.1c2.5,5.8,4.6,11.3,6.3,16.4
			h-37.9c-1.4-4-3.1-8.3-5.1-13s-4.3-9.4-6.8-14c-2.5-4.6-5.1-9.2-7.9-13.6s-5.5-8.4-8.2-11.9l-12.8,52.5h-33.8L673,32.3l35.4-5.5
			L684.1,127.1z"/>
		<path class="st1" d="M526.2,47.6c0,3.2-0.6,6.1-1.8,8.8c-1.2,2.7-2.8,5.1-4.9,7.2c-2.1,2-4.5,3.6-7.3,4.9
			c-2.8,1.2-5.8,1.8-8.9,1.8c-3.2,0-6.1-0.6-8.9-1.8c-2.8-1.2-5.2-2.8-7.2-4.9c-2-2-3.7-4.4-4.9-7.2c-1.2-2.7-1.8-5.7-1.8-8.8
			c0-3.1,0.6-6,1.8-8.8s2.8-5.2,4.9-7.2s4.4-3.7,7.2-4.9c2.8-1.2,5.8-1.8,8.9-1.8s6.1,0.6,8.9,1.8s5.2,2.8,7.3,4.9
			c2.1,2,3.7,4.4,4.9,7.2S526.2,44.5,526.2,47.6z"/>
	</g>
</g>
</svg>
