<svg width="96" height="96" viewBox="0 0 96 96" fill="none" xmlns="http://www.w3.org/2000/svg">
<rect width="96" height="96" rx="24" fill="#1E38DE"/>
<g clip-path="url(#clip0_930_17615)">
<path d="M24.5 62.76C24.3708 62.7599 24.2465 62.8098 24.1533 62.8993C24.0601 62.9888 24.0052 63.1109 24 63.24V68.76C24 69.5557 24.3161 70.3187 24.8787 70.8813C25.4413 71.4439 26.2044 71.76 27 71.76H69C69.7956 71.76 70.5587 71.4439 71.1213 70.8813C71.6839 70.3187 72 69.5557 72 68.76V63.24C71.9948 63.1109 71.9399 62.9888 71.8467 62.8993C71.7535 62.8098 71.6292 62.7599 71.5 62.76H24.5ZM45 66.24H51C51.3997 66.2453 51.7812 66.4077 52.0619 66.6922C52.3426 66.9767 52.5 67.3603 52.5 67.76C52.4947 68.1544 52.3344 68.5308 52.0537 68.8078C51.7729 69.0848 51.3944 69.24 51 69.24H45C44.6056 69.24 44.2271 69.0848 43.9463 68.8078C43.6656 68.5308 43.5053 68.1544 43.5 67.76C43.5 67.3603 43.6574 66.9767 43.9381 66.6922C44.2188 66.4077 44.6003 66.2453 45 66.24Z" fill="white"/>
<path d="M71.2994 60.76C71.3836 60.757 71.4659 60.7336 71.539 60.6918C71.6122 60.65 71.6741 60.591 71.7194 60.52C71.7579 60.4494 71.7781 60.3704 71.7781 60.29C71.7781 60.2096 71.7579 60.1305 71.7194 60.06C71.727 60.0002 71.727 59.9397 71.7194 59.88L65.9994 48.62C65.9816 48.5477 65.9816 48.4722 65.9994 48.4V38.76C65.9994 37.9643 65.6834 37.2013 65.1208 36.6387C64.5581 36.0761 63.7951 35.76 62.9994 35.76H61.4994C61.365 35.7548 61.2378 35.6978 61.1446 35.6008C61.0514 35.5038 60.9993 35.3745 60.9994 35.24V33.76C60.9993 33.6255 61.0514 33.4962 61.1446 33.3992C61.2378 33.3022 61.365 33.2452 61.4994 33.24H62.9994C63.9242 33.24 64.8115 32.874 65.4673 32.2219C66.1231 31.5699 66.4941 30.6848 66.4994 29.76V27.76C66.4994 26.8299 66.1313 25.9376 65.4755 25.278C64.8197 24.6185 63.9295 24.2453 62.9994 24.24H54.9994C54.0693 24.2453 53.1791 24.6185 52.5233 25.278C51.8675 25.9376 51.4994 26.8299 51.4994 27.76V29.76C51.5047 30.6848 51.8758 31.5699 52.5316 32.2219C53.1874 32.874 54.0746 33.24 54.9994 33.24H56.4994C56.6339 33.2452 56.761 33.3022 56.8543 33.3992C56.9475 33.4962 56.9995 33.6255 56.9994 33.76V35.24C56.9995 35.3745 56.9475 35.5038 56.8543 35.6008C56.761 35.6978 56.6339 35.7548 56.4994 35.76H45.4994C45.365 35.7548 45.2378 35.6978 45.1446 35.6008C45.0514 35.5038 44.9993 35.3745 44.9994 35.24V27.76C45.0006 27.3041 44.8979 26.8539 44.699 26.4437C44.5001 26.0335 44.2104 25.674 43.8518 25.3925C43.4932 25.111 43.0751 24.9149 42.6294 24.8192C42.1837 24.7235 41.722 24.7306 41.2794 24.84L35.2794 26.34C34.6307 26.5004 34.0541 26.8728 33.641 27.3981C33.228 27.9235 33.0022 28.5717 32.9994 29.24V35.24C33.001 35.3598 32.9594 35.4762 32.8823 35.568C32.8052 35.6598 32.6977 35.7208 32.5794 35.74C31.8551 35.8423 31.1932 36.2057 30.7181 36.7619C30.2429 37.318 29.9874 38.0286 29.9994 38.76V48.4C30.0172 48.4722 30.0172 48.5477 29.9994 48.62L24.3194 59.88C24.3119 59.9397 24.3119 60.0002 24.3194 60.06C24.2809 60.1305 24.2607 60.2096 24.2607 60.29C24.2607 60.3704 24.2809 60.4494 24.3194 60.52C24.3648 60.591 24.4267 60.65 24.4998 60.6918C24.573 60.7336 24.6552 60.757 24.7394 60.76H71.2994ZM60.9994 39.76C61.5994 39.76 62.0994 40.42 62.0994 41.24V44.24C62.0994 45.08 61.5994 45.76 60.9994 45.76H35.0994C34.4794 45.76 33.9994 45.08 33.9994 44.24V41.24C33.9994 40.42 34.4794 39.76 35.0994 39.76H60.9994ZM40.9994 54.26C40.9994 54.7904 40.7887 55.2991 40.4136 55.6742C40.0386 56.0493 39.5299 56.26 38.9994 56.26H36.9994C36.469 56.26 35.9603 56.0493 35.5852 55.6742C35.2101 55.2991 34.9994 54.7904 34.9994 54.26C34.9994 53.7296 35.2101 53.2208 35.5852 52.8458C35.9603 52.4707 36.469 52.26 36.9994 52.26H38.9994C39.2621 52.26 39.5221 52.3117 39.7648 52.4122C40.0075 52.5127 40.2279 52.6601 40.4136 52.8458C40.5994 53.0315 40.7467 53.252 40.8472 53.4946C40.9477 53.7373 40.9994 53.9973 40.9994 54.26V54.26ZM48.9994 56.26H46.9994C46.469 56.26 45.9603 56.0493 45.5852 55.6742C45.2101 55.2991 44.9994 54.7904 44.9994 54.26C44.9994 53.7296 45.2101 53.2208 45.5852 52.8458C45.9603 52.4707 46.469 52.26 46.9994 52.26H48.9994C49.5299 52.26 50.0386 52.4707 50.4136 52.8458C50.7887 53.2208 50.9994 53.7296 50.9994 54.26C50.9994 54.7904 50.7887 55.2991 50.4136 55.6742C50.0386 56.0493 49.5299 56.26 48.9994 56.26ZM59.9994 56.26H57.9994C57.469 56.26 56.9603 56.0493 56.5852 55.6742C56.2101 55.2991 55.9994 54.7904 55.9994 54.26C55.9994 53.7296 56.2101 53.2208 56.5852 52.8458C56.9603 52.4707 57.469 52.26 57.9994 52.26H59.9994C60.5299 52.26 61.0386 52.4707 61.4136 52.8458C61.7887 53.2208 61.9994 53.7296 61.9994 54.26C61.9994 54.7904 61.7887 55.2991 61.4136 55.6742C61.0386 56.0493 60.5299 56.26 59.9994 56.26ZM36.9994 30.42C37.0154 30.3207 37.0598 30.2283 37.1272 30.1537C37.1947 30.0792 37.2823 30.0258 37.3794 30L40.3794 29.24C40.4523 29.221 40.5287 29.2202 40.6019 29.2377C40.6751 29.2551 40.743 29.2902 40.7994 29.34C40.8579 29.3854 40.906 29.4428 40.9405 29.5084C40.975 29.5739 40.9951 29.6461 40.9994 29.72V35.24C40.9995 35.3745 40.9475 35.5038 40.8543 35.6008C40.761 35.6978 40.6339 35.7548 40.4994 35.76H37.4994C37.365 35.7548 37.2378 35.6978 37.1446 35.6008C37.0514 35.5038 36.9993 35.3745 36.9994 35.24V30.42Z" fill="white"/>
</g>
<defs>
<clipPath id="clip0_930_17615">
<rect width="48" height="48" fill="white" transform="translate(24 24)"/>
</clipPath>
</defs>
</svg>
