<svg width="512" height="512" viewBox="0 0 512 512" fill="none" xmlns="http://www.w3.org/2000/svg">
<rect width="512" height="512" rx="128" fill="#1E38DE"/>
<path d="M130.667 334.72C129.978 334.719 129.315 334.985 128.818 335.463C128.321 335.94 128.028 336.591 128 337.28V366.72C128 370.963 129.686 375.033 132.686 378.033C135.687 381.034 139.757 382.72 144 382.72H368C372.243 382.72 376.313 381.034 379.314 378.033C382.314 375.033 384 370.963 384 366.72V337.28C383.972 336.591 383.679 335.94 383.182 335.463C382.685 334.985 382.022 334.719 381.333 334.72H130.667ZM240 353.28H272C274.131 353.308 276.166 354.174 277.663 355.692C279.161 357.209 280 359.255 280 361.386C279.972 363.49 279.117 365.497 277.619 366.974C276.122 368.452 274.103 369.28 272 369.28H240C237.897 369.28 235.878 368.452 234.381 366.974C232.883 365.497 232.028 363.49 232 361.386C232 359.255 232.839 357.209 234.337 355.692C235.834 354.174 237.869 353.308 240 353.28Z" fill="white"/>
<path d="M380.262 324.054C380.711 324.038 381.149 323.913 381.54 323.69C381.93 323.467 382.26 323.152 382.502 322.774C382.707 322.397 382.815 321.976 382.815 321.547C382.815 321.118 382.707 320.696 382.502 320.32C382.542 320.002 382.542 319.679 382.502 319.36L351.995 259.307C351.9 258.922 351.9 258.519 351.995 258.134V206.72C351.995 202.477 350.309 198.407 347.309 195.407C344.308 192.406 340.238 190.72 335.995 190.72H327.995C327.278 190.693 326.6 190.388 326.103 189.871C325.605 189.354 325.328 188.664 325.328 187.947V180.054C325.328 179.336 325.605 178.646 326.103 178.129C326.6 177.612 327.278 177.308 327.995 177.28H335.995C340.927 177.28 345.659 175.328 349.157 171.851C352.654 168.373 354.634 163.652 354.662 158.72V148.054C354.662 143.093 352.699 138.334 349.201 134.816C345.703 131.299 340.956 129.308 335.995 129.28H293.328C288.368 129.308 283.62 131.299 280.123 134.816C276.625 138.334 274.662 143.093 274.662 148.054V158.72C274.69 163.652 276.669 168.373 280.167 171.851C283.664 175.328 288.396 177.28 293.328 177.28H301.328C302.045 177.308 302.724 177.612 303.221 178.129C303.718 178.646 303.996 179.336 303.995 180.054V187.947C303.996 188.664 303.718 189.354 303.221 189.871C302.724 190.388 302.045 190.693 301.328 190.72H242.662C241.945 190.693 241.267 190.388 240.769 189.871C240.272 189.354 239.994 188.664 239.995 187.947V148.054C240.001 145.622 239.453 143.221 238.393 141.033C237.332 138.846 235.787 136.928 233.874 135.427C231.962 133.926 229.732 132.88 227.355 132.369C224.978 131.859 222.515 131.897 220.155 132.48L188.155 140.48C184.695 141.336 181.62 143.322 179.417 146.124C177.214 148.926 176.01 152.383 175.995 155.947V187.947C176.003 188.586 175.782 189.207 175.37 189.696C174.959 190.186 174.386 190.511 173.755 190.614C169.892 191.159 166.362 193.097 163.828 196.064C161.294 199.03 159.931 202.82 159.995 206.72V258.134C160.09 258.519 160.09 258.922 159.995 259.307L129.702 319.36C129.662 319.679 129.662 320.002 129.702 320.32C129.496 320.696 129.389 321.118 129.389 321.547C129.389 321.976 129.496 322.397 129.702 322.774C129.943 323.152 130.274 323.467 130.664 323.69C131.054 323.913 131.493 324.038 131.942 324.054H380.262ZM325.328 212.054C328.528 212.054 331.195 215.574 331.195 219.947V235.947C331.195 240.427 328.528 244.054 325.328 244.054H187.195C183.888 244.054 181.328 240.427 181.328 235.947V219.947C181.328 215.574 183.888 212.054 187.195 212.054H325.328ZM218.662 289.387C218.662 292.216 217.538 294.929 215.538 296.929C213.537 298.93 210.824 300.054 207.995 300.054H197.328C194.499 300.054 191.786 298.93 189.786 296.929C187.786 294.929 186.662 292.216 186.662 289.387C186.662 286.558 187.786 283.845 189.786 281.844C191.786 279.844 194.499 278.72 197.328 278.72H207.995C209.396 278.72 210.783 278.996 212.077 279.532C213.371 280.068 214.547 280.854 215.538 281.844C216.528 282.835 217.314 284.011 217.85 285.305C218.386 286.599 218.662 287.986 218.662 289.387V289.387ZM261.328 300.054H250.662C247.833 300.054 245.12 298.93 243.119 296.929C241.119 294.929 239.995 292.216 239.995 289.387C239.995 286.558 241.119 283.845 243.119 281.844C245.12 279.844 247.833 278.72 250.662 278.72H261.328C264.157 278.72 266.87 279.844 268.871 281.844C270.871 283.845 271.995 286.558 271.995 289.387C271.995 292.216 270.871 294.929 268.871 296.929C266.87 298.93 264.157 300.054 261.328 300.054ZM319.995 300.054H309.328C306.499 300.054 303.786 298.93 301.786 296.929C299.785 294.929 298.662 292.216 298.662 289.387C298.662 286.558 299.785 283.845 301.786 281.844C303.786 279.844 306.499 278.72 309.328 278.72H319.995C322.824 278.72 325.537 279.844 327.538 281.844C329.538 283.845 330.662 286.558 330.662 289.387C330.662 292.216 329.538 294.929 327.538 296.929C325.537 298.93 322.824 300.054 319.995 300.054ZM197.328 162.24C197.414 161.711 197.65 161.218 198.01 160.82C198.37 160.423 198.837 160.138 199.355 160L215.355 155.947C215.744 155.846 216.151 155.841 216.541 155.934C216.932 156.027 217.294 156.215 217.595 156.48C217.907 156.723 218.163 157.029 218.347 157.378C218.531 157.728 218.638 158.113 218.662 158.507V187.947C218.662 188.664 218.385 189.354 217.887 189.871C217.39 190.388 216.712 190.693 215.995 190.72H199.995C199.278 190.693 198.6 190.388 198.103 189.871C197.605 189.354 197.328 188.664 197.328 187.947V162.24Z" fill="white"/>
</svg>
