<svg width="152" height="152" viewBox="0 0 152 152" fill="none" xmlns="http://www.w3.org/2000/svg">
<rect width="152" height="152" rx="38" fill="#1E38DE"/>
<path d="M38.7917 99.3701C38.5871 99.37 38.3904 99.449 38.2428 99.5907C38.0952 99.7324 38.0082 99.9257 38 100.13V108.87C38 110.13 38.5004 111.338 39.3912 112.229C40.282 113.12 41.4902 113.62 42.75 113.62H109.25C110.51 113.62 111.718 113.12 112.609 112.229C113.5 111.338 114 110.13 114 108.87V100.13C113.992 99.9257 113.905 99.7324 113.757 99.5907C113.61 99.449 113.413 99.37 113.208 99.3701H38.7917ZM71.25 104.88H80.75C81.3828 104.888 81.9868 105.146 82.4313 105.596C82.8758 106.047 83.1251 106.654 83.125 107.287C83.1167 107.911 82.8628 108.507 82.4183 108.946C81.9738 109.384 81.3744 109.63 80.75 109.63H71.25C70.6256 109.63 70.0262 109.384 69.5817 108.946C69.1372 108.507 68.8833 107.911 68.875 107.287C68.8749 106.654 69.1242 106.047 69.5687 105.596C70.0132 105.146 70.6172 104.888 71.25 104.88Z" fill="white"/>
<path d="M112.89 96.2034C113.023 96.1987 113.154 96.1617 113.269 96.0955C113.385 96.0293 113.483 95.9359 113.555 95.8235C113.616 95.7118 113.648 95.5865 113.648 95.4593C113.648 95.332 113.616 95.2068 113.555 95.0951C113.567 95.0005 113.567 94.9047 113.555 94.8101L104.498 76.9818C104.47 76.8674 104.47 76.7479 104.498 76.6335V61.3701C104.498 60.1103 103.998 58.9022 103.107 58.0114C102.216 57.1206 101.008 56.6201 99.7484 56.6201H97.3734C97.1605 56.6119 96.9592 56.5216 96.8116 56.3681C96.6639 56.2145 96.5816 56.0098 96.5817 55.7968V53.4535C96.5816 53.2405 96.6639 53.0357 96.8116 52.8822C96.9592 52.7287 97.1605 52.6383 97.3734 52.6301H99.7484C101.213 52.6301 102.617 52.0506 103.656 51.0182C104.694 49.9858 105.282 48.5844 105.29 47.1201V43.9535C105.29 42.4808 104.707 41.068 103.669 40.0237C102.63 38.9794 101.221 38.3885 99.7484 38.3801H87.0817C85.6091 38.3885 84.1996 38.9794 83.1612 40.0237C82.1229 41.068 81.54 42.4808 81.54 43.9535V47.1201C81.5484 48.5844 82.136 49.9858 83.1743 51.0182C84.2127 52.0506 85.6174 52.6301 87.0817 52.6301H89.4567C89.6695 52.6383 89.8709 52.7287 90.0185 52.8822C90.1661 53.0357 90.2485 53.2405 90.2484 53.4535V55.7968C90.2485 56.0098 90.1661 56.2145 90.0185 56.3681C89.8709 56.5216 89.6695 56.6119 89.4567 56.6201H72.04C71.8272 56.6119 71.6258 56.5216 71.4782 56.3681C71.3306 56.2145 71.2482 56.0098 71.2484 55.7968V43.9535C71.2502 43.2316 71.0875 42.5189 70.7727 41.8693C70.4578 41.2198 69.9991 40.6506 69.4313 40.2049C68.8635 39.7592 68.2016 39.4488 67.4958 39.2972C66.7901 39.1456 66.0591 39.1569 65.3584 39.3301L55.8584 41.7051C54.8312 41.9591 53.9182 42.5487 53.2642 43.3805C52.6102 44.2123 52.2527 45.2387 52.2484 46.2968V55.7968C52.2508 55.9865 52.185 56.1709 52.063 56.3162C51.9409 56.4615 51.7707 56.5581 51.5834 56.5885C50.4366 56.7504 49.3885 57.3258 48.6362 58.2064C47.8839 59.087 47.4793 60.2121 47.4984 61.3701V76.6335C47.5265 76.7479 47.5265 76.8674 47.4984 76.9818L38.505 94.8101C38.4931 94.9047 38.4931 95.0005 38.505 95.0951C38.4441 95.2068 38.4121 95.332 38.4121 95.4593C38.4121 95.5865 38.4441 95.7118 38.505 95.8235C38.5768 95.9359 38.6748 96.0293 38.7907 96.0955C38.9065 96.1617 39.0367 96.1987 39.17 96.2034H112.89ZM96.5817 62.9535C97.5317 62.9535 98.3234 63.9985 98.3234 65.2968V70.0468C98.3234 71.3768 97.5317 72.4535 96.5817 72.4535H55.5734C54.5917 72.4535 53.8317 71.3768 53.8317 70.0468V65.2968C53.8317 63.9985 54.5917 62.9535 55.5734 62.9535H96.5817ZM64.915 85.9118C64.915 86.7516 64.5814 87.5571 63.9875 88.151C63.3937 88.7448 62.5882 89.0784 61.7484 89.0784H58.5817C57.7419 89.0784 56.9364 88.7448 56.3425 88.151C55.7487 87.5571 55.415 86.7516 55.415 85.9118C55.415 85.0719 55.7487 84.2665 56.3425 83.6726C56.9364 83.0788 57.7419 82.7451 58.5817 82.7451H61.7484C62.1642 82.7451 62.576 82.827 62.9602 82.9862C63.3444 83.1453 63.6935 83.3786 63.9875 83.6726C64.2816 83.9667 64.5149 84.3158 64.674 84.7C64.8331 85.0842 64.915 85.4959 64.915 85.9118V85.9118ZM77.5817 89.0784H74.415C73.5752 89.0784 72.7697 88.7448 72.1759 88.151C71.582 87.5571 71.2484 86.7516 71.2484 85.9118C71.2484 85.0719 71.582 84.2665 72.1759 83.6726C72.7697 83.0788 73.5752 82.7451 74.415 82.7451H77.5817C78.4216 82.7451 79.227 83.0788 79.8209 83.6726C80.4147 84.2665 80.7484 85.0719 80.7484 85.9118C80.7484 86.7516 80.4147 87.5571 79.8209 88.151C79.227 88.7448 78.4216 89.0784 77.5817 89.0784ZM94.9984 89.0784H91.8317C90.9919 89.0784 90.1864 88.7448 89.5925 88.151C88.9987 87.5571 88.665 86.7516 88.665 85.9118C88.665 85.0719 88.9987 84.2665 89.5925 83.6726C90.1864 83.0788 90.9919 82.7451 91.8317 82.7451H94.9984C95.8382 82.7451 96.6437 83.0788 97.2375 83.6726C97.8314 84.2665 98.165 85.0719 98.165 85.9118C98.165 86.7516 97.8314 87.5571 97.2375 88.151C96.6437 88.7448 95.8382 89.0784 94.9984 89.0784ZM58.5817 48.1651C58.607 48.008 58.6773 47.8615 58.7841 47.7435C58.8908 47.6255 59.0295 47.541 59.1834 47.5001L63.9334 46.2968C64.0487 46.2668 64.1697 46.2655 64.2856 46.2931C64.4015 46.3207 64.5089 46.3763 64.5984 46.4551C64.691 46.5271 64.7671 46.618 64.8217 46.7217C64.8763 46.8255 64.9081 46.9397 64.915 47.0568V55.7968C64.9152 56.0098 64.8328 56.2145 64.6852 56.3681C64.5376 56.5216 64.3362 56.6119 64.1234 56.6201H59.3734C59.1605 56.6119 58.9592 56.5216 58.8116 56.3681C58.6639 56.2145 58.5815 56.0098 58.5817 55.7968V48.1651Z" fill="white"/>
</svg>
