<svg width="144" height="144" viewBox="0 0 144 144" fill="none" xmlns="http://www.w3.org/2000/svg">
<rect width="144" height="144" rx="36" fill="#1E38DE"/>
<path d="M36.75 94.1401C36.5562 94.14 36.3698 94.2149 36.23 94.3491C36.0902 94.4833 36.0078 94.6665 36 94.8601V103.14C36 104.334 36.4741 105.478 37.318 106.322C38.1619 107.166 39.3065 107.64 40.5 107.64H103.5C104.693 107.64 105.838 107.166 106.682 106.322C107.526 105.478 108 104.334 108 103.14V94.8601C107.992 94.6665 107.91 94.4833 107.77 94.3491C107.63 94.2149 107.444 94.14 107.25 94.1401H36.75ZM67.5 99.3601H76.5C77.0995 99.368 77.6717 99.6117 78.0928 100.038C78.514 100.465 78.7501 101.041 78.75 101.64C78.7421 102.232 78.5016 102.796 78.0805 103.212C77.6594 103.627 77.0916 103.86 76.5 103.86H67.5C66.9084 103.86 66.3406 103.627 65.9195 103.212C65.4984 102.796 65.2579 102.232 65.25 101.64C65.2499 101.041 65.486 100.465 65.9072 100.038C66.3283 99.6117 66.9005 99.368 67.5 99.3601Z" fill="white"/>
<path d="M106.949 91.1401C107.075 91.1356 107.198 91.1005 107.308 91.0378C107.418 90.9751 107.511 90.8867 107.579 90.7801C107.636 90.6743 107.667 90.5557 107.667 90.4351C107.667 90.3145 107.636 90.1959 107.579 90.0901C107.59 90.0005 107.59 89.9097 107.579 89.8201L98.9987 72.9301C98.972 72.8217 98.972 72.7085 98.9987 72.6001V58.1401C98.9987 56.9466 98.5246 55.802 97.6806 54.9581C96.8367 54.1142 95.6921 53.6401 94.4987 53.6401H92.2487C92.047 53.6323 91.8563 53.5468 91.7164 53.4013C91.5766 53.2559 91.4985 53.0619 91.4987 52.8601V50.6401C91.4985 50.4383 91.5766 50.2444 91.7164 50.0989C91.8563 49.9535 92.047 49.8679 92.2487 49.8601H94.4987C95.8859 49.8601 97.2167 49.3111 98.2004 48.333C99.1841 47.355 99.7407 46.0273 99.7487 44.6401V41.6401C99.7487 40.2449 99.1965 38.9065 98.2128 37.9172C97.2291 36.9278 95.8938 36.368 94.4987 36.3601H82.4987C81.1035 36.368 79.7682 36.9278 78.7845 37.9172C77.8008 38.9065 77.2486 40.2449 77.2487 41.6401V44.6401C77.2566 46.0273 77.8132 47.355 78.7969 48.333C79.7806 49.3111 81.1115 49.8601 82.4987 49.8601H84.7487C84.9503 49.8679 85.1411 49.9535 85.2809 50.0989C85.4208 50.2444 85.4988 50.4383 85.4987 50.6401V52.8601C85.4988 53.0619 85.4208 53.2559 85.2809 53.4013C85.1411 53.5468 84.9503 53.6323 84.7487 53.6401H68.2487C68.047 53.6323 67.8563 53.5468 67.7164 53.4013C67.5766 53.2559 67.4985 53.0619 67.4987 52.8601V41.6401C67.5004 40.9563 67.3463 40.281 67.048 39.6657C66.7497 39.0503 66.3151 38.5111 65.7772 38.0888C65.2393 37.6666 64.6122 37.3725 63.9436 37.2289C63.275 37.0853 62.5825 37.096 61.9187 37.2601L52.9187 39.5101C51.9455 39.7507 51.0806 40.3093 50.461 41.0973C49.8415 41.8854 49.5028 42.8577 49.4987 43.8601V52.8601C49.501 53.0399 49.4386 53.2145 49.323 53.3522C49.2074 53.4898 49.0461 53.5814 48.8687 53.6101C47.7822 53.7636 46.7893 54.3087 46.0766 55.1429C45.3639 55.9772 44.9806 57.043 44.9987 58.1401V72.6001C45.0254 72.7085 45.0254 72.8217 44.9987 72.9301L36.4787 89.8201C36.4674 89.9097 36.4674 90.0005 36.4787 90.0901C36.4209 90.1959 36.3906 90.3145 36.3906 90.4351C36.3906 90.5557 36.4209 90.6743 36.4787 90.7801C36.5466 90.8867 36.6395 90.9751 36.7493 91.0378C36.859 91.1005 36.9823 91.1356 37.1087 91.1401H106.949ZM91.4987 59.6401C92.3987 59.6401 93.1487 60.6301 93.1487 61.8601V66.3601C93.1487 67.6201 92.3987 68.6401 91.4987 68.6401H52.6487C51.7187 68.6401 50.9987 67.6201 50.9987 66.3601V61.8601C50.9987 60.6301 51.7187 59.6401 52.6487 59.6401H91.4987ZM61.4987 81.3901C61.4987 82.1858 61.1826 82.9488 60.62 83.5114C60.0574 84.074 59.2943 84.3901 58.4987 84.3901H55.4987C54.703 84.3901 53.94 84.074 53.3773 83.5114C52.8147 82.9488 52.4987 82.1858 52.4987 81.3901C52.4987 80.5945 52.8147 79.8314 53.3773 79.2688C53.94 78.7062 54.703 78.3901 55.4987 78.3901H58.4987C58.8926 78.3901 59.2827 78.4677 59.6467 78.6185C60.0107 78.7692 60.3414 78.9902 60.62 79.2688C60.8986 79.5474 61.1195 79.8781 61.2703 80.2421C61.4211 80.606 61.4987 80.9961 61.4987 81.3901V81.3901ZM73.4987 84.3901H70.4987C69.703 84.3901 68.94 84.074 68.3773 83.5114C67.8147 82.9488 67.4987 82.1858 67.4987 81.3901C67.4987 80.5945 67.8147 79.8314 68.3773 79.2688C68.94 78.7062 69.703 78.3901 70.4987 78.3901H73.4987C74.2943 78.3901 75.0574 78.7062 75.62 79.2688C76.1826 79.8314 76.4987 80.5945 76.4987 81.3901C76.4987 82.1858 76.1826 82.9488 75.62 83.5114C75.0574 84.074 74.2943 84.3901 73.4987 84.3901ZM89.9987 84.3901H86.9987C86.203 84.3901 85.4399 84.074 84.8773 83.5114C84.3147 82.9488 83.9987 82.1858 83.9987 81.3901C83.9987 80.5945 84.3147 79.8314 84.8773 79.2688C85.4399 78.7062 86.203 78.3901 86.9987 78.3901H89.9987C90.7943 78.3901 91.5574 78.7062 92.12 79.2688C92.6826 79.8314 92.9987 80.5945 92.9987 81.3901C92.9987 82.1858 92.6826 82.9488 92.12 83.5114C91.5574 84.074 90.7943 84.3901 89.9987 84.3901ZM55.4987 45.6301C55.5226 45.4812 55.5892 45.3425 55.6904 45.2307C55.7915 45.1189 55.9229 45.0388 56.0687 45.0001L60.5687 43.8601C60.6779 43.8317 60.7925 43.8305 60.9024 43.8566C61.0122 43.8828 61.1139 43.9355 61.1987 44.0101C61.2864 44.0783 61.3585 44.1644 61.4102 44.2627C61.462 44.361 61.4921 44.4692 61.4987 44.5801V52.8601C61.4988 53.0619 61.4208 53.2559 61.2809 53.4013C61.1411 53.5468 60.9503 53.6323 60.7487 53.6401H56.2487C56.047 53.6323 55.8563 53.5468 55.7164 53.4013C55.5766 53.2559 55.4985 53.0619 55.4987 52.8601V45.6301Z" fill="white"/>
</svg>
