<svg width="192" height="192" viewBox="0 0 192 192" fill="none" xmlns="http://www.w3.org/2000/svg">
<rect width="192" height="192" rx="48" fill="#1E38DE"/>
<path d="M49 125.52C48.7416 125.52 48.4931 125.62 48.3067 125.799C48.1202 125.978 48.0103 126.222 48 126.48V137.52C48 139.111 48.6321 140.638 49.7574 141.763C50.8826 142.888 52.4087 143.52 54 143.52H138C139.591 143.52 141.117 142.888 142.243 141.763C143.368 140.638 144 139.111 144 137.52V126.48C143.99 126.222 143.88 125.978 143.693 125.799C143.507 125.62 143.258 125.52 143 125.52H49ZM90 132.48H102C102.799 132.491 103.562 132.816 104.124 133.385C104.685 133.954 105 134.721 105 135.52C104.989 136.309 104.669 137.062 104.107 137.616C103.546 138.17 102.789 138.48 102 138.48H90C89.2112 138.48 88.4542 138.17 87.8927 137.616C87.3312 137.062 87.0105 136.309 87 135.52C86.9999 134.721 87.3147 133.954 87.8762 133.385C88.4377 132.816 89.2007 132.491 90 132.48Z" fill="white"/>
<path d="M142.598 121.52C142.766 121.514 142.931 121.467 143.077 121.384C143.223 121.3 143.347 121.182 143.438 121.04C143.515 120.899 143.555 120.741 143.555 120.58C143.555 120.419 143.515 120.261 143.438 120.12C143.453 120.001 143.453 119.88 143.438 119.76L131.998 97.2401C131.962 97.0956 131.962 96.9446 131.998 96.8001V77.5201C131.998 75.9288 131.366 74.4027 130.241 73.2775C129.115 72.1522 127.589 71.5201 125.998 71.5201H122.998C122.729 71.5098 122.475 71.3956 122.288 71.2017C122.102 71.0078 121.998 70.7491 121.998 70.4801V67.5201C121.998 67.2511 122.102 66.9924 122.288 66.7985C122.475 66.6046 122.729 66.4904 122.998 66.4801H125.998C127.847 66.4801 129.622 65.7481 130.934 64.444C132.245 63.1399 132.987 61.3697 132.998 59.5201V55.5201C132.998 53.6599 132.262 51.8753 130.95 50.5562C129.638 49.237 127.858 48.4907 125.998 48.4801H109.998C108.138 48.4907 106.357 49.237 105.046 50.5562C103.734 51.8753 102.998 53.6599 102.998 55.5201V59.5201C103.008 61.3697 103.751 63.1399 105.062 64.444C106.374 65.7481 108.148 66.4801 109.998 66.4801H112.998C113.267 66.4904 113.521 66.6046 113.708 66.7985C113.894 66.9924 113.998 67.2511 113.998 67.5201V70.4801C113.998 70.7491 113.894 71.0078 113.708 71.2017C113.521 71.3956 113.267 71.5098 112.998 71.5201H90.9979C90.7291 71.5098 90.4747 71.3956 90.2882 71.2017C90.1018 71.0078 89.9977 70.7491 89.9979 70.4801V55.5201C90.0002 54.6083 89.7947 53.708 89.397 52.8875C88.9993 52.0671 88.4198 51.348 87.7026 50.7851C86.9854 50.2221 86.1493 49.83 85.2578 49.6385C84.3664 49.447 83.443 49.4613 82.5579 49.6801L70.5579 52.6801C69.2604 53.0009 68.1071 53.7457 67.2811 54.7964C66.455 55.8471 66.0034 57.1436 65.9979 58.4801V70.4801C66.001 70.7198 65.9179 70.9526 65.7637 71.1362C65.6095 71.3197 65.3945 71.4418 65.1579 71.4801C63.7093 71.6847 62.3854 72.4115 61.4351 73.5238C60.4849 74.6362 59.9738 76.0573 59.9979 77.5201V96.8001C60.0335 96.9446 60.0335 97.0956 59.9979 97.2401L48.6379 119.76C48.6228 119.88 48.6228 120.001 48.6379 120.12C48.5609 120.261 48.5205 120.419 48.5205 120.58C48.5205 120.741 48.5609 120.899 48.6379 121.04C48.7285 121.182 48.8524 121.3 48.9987 121.384C49.145 121.467 49.3095 121.514 49.4779 121.52H142.598ZM121.998 79.5201C123.198 79.5201 124.198 80.8401 124.198 82.4801V88.4801C124.198 90.1601 123.198 91.5201 121.998 91.5201H70.1979C68.9579 91.5201 67.9979 90.1601 67.9979 88.4801V82.4801C67.9979 80.8401 68.9579 79.5201 70.1979 79.5201H121.998ZM81.9979 108.52C81.9979 109.581 81.5765 110.598 80.8263 111.349C80.0762 112.099 79.0588 112.52 77.9979 112.52H73.9979C72.937 112.52 71.9196 112.099 71.1695 111.349C70.4193 110.598 69.9979 109.581 69.9979 108.52C69.9979 107.459 70.4193 106.442 71.1695 105.692C71.9196 104.942 72.937 104.52 73.9979 104.52H77.9979C78.5232 104.52 79.0433 104.624 79.5286 104.825C80.0139 105.026 80.4549 105.32 80.8263 105.692C81.1978 106.063 81.4924 106.504 81.6934 106.989C81.8944 107.475 81.9979 107.995 81.9979 108.52V108.52ZM97.9979 112.52H93.9979C92.937 112.52 91.9196 112.099 91.1695 111.349C90.4193 110.598 89.9979 109.581 89.9979 108.52C89.9979 107.459 90.4193 106.442 91.1695 105.692C91.9196 104.942 92.937 104.52 93.9979 104.52H97.9979C99.0588 104.52 100.076 104.942 100.826 105.692C101.576 106.442 101.998 107.459 101.998 108.52C101.998 109.581 101.576 110.598 100.826 111.349C100.076 112.099 99.0588 112.52 97.9979 112.52ZM119.998 112.52H115.998C114.937 112.52 113.92 112.099 113.169 111.349C112.419 110.598 111.998 109.581 111.998 108.52C111.998 107.459 112.419 106.442 113.169 105.692C113.92 104.942 114.937 104.52 115.998 104.52H119.998C121.059 104.52 122.076 104.942 122.826 105.692C123.576 106.442 123.998 107.459 123.998 108.52C123.998 109.581 123.576 110.598 122.826 111.349C122.076 112.099 121.059 112.52 119.998 112.52ZM73.9979 60.8401C74.0298 60.6416 74.1186 60.4566 74.2535 60.3075C74.3884 60.1585 74.5636 60.0517 74.7579 60.0001L80.7579 58.4801C80.9036 58.4422 81.0564 58.4406 81.2028 58.4754C81.3493 58.5103 81.4849 58.5806 81.5979 58.6801C81.7148 58.771 81.811 58.8858 81.88 59.0169C81.949 59.148 81.9892 59.2922 81.9979 59.4401V70.4801C81.9981 70.7491 81.894 71.0078 81.7076 71.2017C81.5211 71.3956 81.2667 71.5098 80.9979 71.5201H74.9979C74.7291 71.5098 74.4747 71.3956 74.2882 71.2017C74.1018 71.0078 73.9977 70.7491 73.9979 70.4801V60.8401Z" fill="white"/>
</svg>
