<svg width="384" height="384" viewBox="0 0 384 384" fill="none" xmlns="http://www.w3.org/2000/svg">
<rect width="384" height="384" rx="96" fill="#1E38DE"/>
<g clip-path="url(#clip0_930_17645)">
<path d="M98 251.04C97.4831 251.04 96.9862 251.239 96.6133 251.597C96.2405 251.955 96.0207 252.444 96 252.96V275.04C96 278.223 97.2643 281.275 99.5147 283.525C101.765 285.776 104.817 287.04 108 287.04H276C279.183 287.04 282.235 285.776 284.485 283.525C286.736 281.275 288 278.223 288 275.04V252.96C287.979 252.444 287.76 251.955 287.387 251.597C287.014 251.239 286.517 251.04 286 251.04H98ZM180 264.96H204C205.599 264.981 207.125 265.631 208.248 266.769C209.371 267.907 210 269.441 210 271.04C209.979 272.617 209.338 274.123 208.215 275.231C207.092 276.339 205.578 276.96 204 276.96H180C178.422 276.96 176.908 276.339 175.785 275.231C174.662 274.123 174.021 272.617 174 271.04C174 269.441 174.629 267.907 175.752 266.769C176.875 265.631 178.401 264.981 180 264.96Z" fill="white"/>
<path d="M285.197 243.04C285.534 243.028 285.863 242.935 286.155 242.767C286.448 242.6 286.695 242.364 286.877 242.08C287.031 241.798 287.112 241.482 287.112 241.16C287.112 240.839 287.031 240.522 286.877 240.24C286.907 240.001 286.907 239.759 286.877 239.52L263.997 194.48C263.926 194.191 263.926 193.889 263.997 193.6V155.04C263.997 151.858 262.732 148.805 260.482 146.555C258.232 144.304 255.179 143.04 251.997 143.04H245.997C245.459 143.02 244.95 142.791 244.577 142.403C244.205 142.016 243.996 141.498 243.997 140.96V135.04C243.996 134.502 244.205 133.985 244.577 133.597C244.95 133.209 245.459 132.981 245.997 132.96H251.997C255.696 132.96 259.245 131.496 261.868 128.888C264.491 126.28 265.976 122.739 265.997 119.04V111.04C265.997 107.32 264.524 103.751 261.901 101.112C259.278 98.4741 255.717 96.9813 251.997 96.9602H219.997C216.276 96.9813 212.716 98.4741 210.092 101.112C207.469 103.751 205.997 107.32 205.997 111.04V119.04C206.018 122.739 207.502 126.28 210.125 128.888C212.749 131.496 216.298 132.96 219.997 132.96H225.997C226.534 132.981 227.043 133.209 227.416 133.597C227.789 133.985 227.997 134.502 227.997 135.04V140.96C227.997 141.498 227.789 142.016 227.416 142.403C227.043 142.791 226.534 143.02 225.997 143.04H181.997C181.459 143.02 180.95 142.791 180.577 142.403C180.204 142.016 179.996 141.498 179.997 140.96V111.04C180.001 109.217 179.59 107.416 178.795 105.775C178 104.134 176.841 102.696 175.406 101.57C173.972 100.444 172.3 99.6599 170.517 99.277C168.734 98.8941 166.887 98.9225 165.117 99.3602L141.117 105.36C138.522 106.002 136.215 107.491 134.563 109.593C132.911 111.694 132.008 114.287 131.997 116.96V140.96C132.003 141.44 131.837 141.905 131.528 142.272C131.22 142.639 130.79 142.884 130.317 142.96C127.42 143.369 124.772 144.823 122.871 147.048C120.971 149.272 119.948 152.115 119.997 155.04V193.6C120.068 193.889 120.068 194.191 119.997 194.48L97.2768 239.52C97.2466 239.759 97.2466 240.001 97.2768 240.24C97.1227 240.522 97.042 240.839 97.042 241.16C97.042 241.482 97.1227 241.798 97.2768 242.08C97.458 242.364 97.7057 242.6 97.9983 242.767C98.291 242.935 98.6199 243.028 98.9568 243.04H285.197ZM243.997 159.04C246.397 159.04 248.397 161.68 248.397 164.96V176.96C248.397 180.32 246.397 183.04 243.997 183.04H140.397C137.917 183.04 135.997 180.32 135.997 176.96V164.96C135.997 161.68 137.917 159.04 140.397 159.04H243.997ZM163.997 217.04C163.997 219.162 163.154 221.197 161.654 222.697C160.153 224.197 158.118 225.04 155.997 225.04H147.997C145.875 225.04 143.84 224.197 142.34 222.697C140.84 221.197 139.997 219.162 139.997 217.04C139.997 214.918 140.84 212.884 142.34 211.383C143.84 209.883 145.875 209.04 147.997 209.04H155.997C157.047 209.04 158.088 209.247 159.058 209.649C160.029 210.051 160.911 210.64 161.654 211.383C162.396 212.126 162.986 213.008 163.388 213.979C163.79 214.949 163.997 215.99 163.997 217.04V217.04ZM195.997 225.04H187.997C185.875 225.04 183.84 224.197 182.34 222.697C180.84 221.197 179.997 219.162 179.997 217.04C179.997 214.918 180.84 212.884 182.34 211.383C183.84 209.883 185.875 209.04 187.997 209.04H195.997C198.118 209.04 200.153 209.883 201.654 211.383C203.154 212.884 203.997 214.918 203.997 217.04C203.997 219.162 203.154 221.197 201.654 222.697C200.153 224.197 198.118 225.04 195.997 225.04ZM239.997 225.04H231.997C229.875 225.04 227.84 224.197 226.34 222.697C224.84 221.197 223.997 219.162 223.997 217.04C223.997 214.918 224.84 212.884 226.34 211.383C227.84 209.883 229.875 209.04 231.997 209.04H239.997C242.118 209.04 244.153 209.883 245.654 211.383C247.154 212.884 247.997 214.918 247.997 217.04C247.997 219.162 247.154 221.197 245.654 222.697C244.153 224.197 242.118 225.04 239.997 225.04ZM147.997 121.68C148.061 121.283 148.238 120.913 148.508 120.615C148.778 120.317 149.128 120.103 149.517 120L161.517 116.96C161.808 116.884 162.114 116.881 162.407 116.951C162.7 117.021 162.971 117.161 163.197 117.36C163.431 117.542 163.623 117.772 163.761 118.034C163.899 118.296 163.979 118.584 163.997 118.88V140.96C163.997 141.498 163.789 142.016 163.416 142.403C163.043 142.791 162.534 143.02 161.997 143.04H149.997C149.459 143.02 148.95 142.791 148.577 142.403C148.204 142.016 147.996 141.498 147.997 140.96V121.68Z" fill="white"/>
</g>
<defs>
<clipPath id="clip0_930_17645">
<rect width="192" height="192" fill="white" transform="translate(96 96)"/>
</clipPath>
</defs>
</svg>
