<svg width="72" height="72" viewBox="0 0 72 72" fill="none" xmlns="http://www.w3.org/2000/svg">
<rect width="72" height="72" rx="18" fill="#1E38DE"/>
<path d="M18.375 47.0701C18.2781 47.07 18.1849 47.1074 18.115 47.1746C18.0451 47.2417 18.0039 47.3332 18 47.4301V51.5701C18 52.1668 18.2371 52.7391 18.659 53.1611C19.081 53.583 19.6533 53.8201 20.25 53.8201H51.75C52.3467 53.8201 52.919 53.583 53.341 53.1611C53.7629 52.7391 54 52.1668 54 51.5701V47.4301C53.9961 47.3332 53.9549 47.2417 53.885 47.1746C53.8151 47.1074 53.7219 47.07 53.625 47.0701H18.375ZM33.75 49.6801H38.25C38.5497 49.684 38.8359 49.8059 39.0464 50.0192C39.257 50.2326 39.375 50.5203 39.375 50.8201C39.3711 51.1158 39.2508 51.3981 39.0402 51.6059C38.8297 51.8136 38.5458 51.9301 38.25 51.9301H33.75C33.4542 51.9301 33.1703 51.8136 32.9598 51.6059C32.7492 51.3981 32.6289 51.1158 32.625 50.8201C32.625 50.5203 32.743 50.2326 32.9536 50.0192C33.1641 49.8059 33.4503 49.684 33.75 49.6801Z" fill="white"/>
<path d="M53.4743 45.57C53.5375 45.5678 53.5992 45.5503 53.654 45.5189C53.7089 45.4876 53.7553 45.4433 53.7893 45.3901C53.8182 45.3371 53.8334 45.2778 53.8334 45.2176C53.8334 45.1573 53.8182 45.098 53.7893 45.0451C53.795 45.0002 53.795 44.9549 53.7893 44.9101L49.4993 36.4651C49.486 36.4109 49.486 36.3542 49.4993 36.3001V29.0701C49.4993 28.4733 49.2623 27.901 48.8403 27.4791C48.4184 27.0571 47.8461 26.8201 47.2493 26.8201H46.1243C46.0235 26.8162 45.9281 26.7734 45.8582 26.7007C45.7883 26.6279 45.7493 26.5309 45.7493 26.4301V25.3201C45.7493 25.2192 45.7883 25.1222 45.8582 25.0495C45.9281 24.9767 46.0235 24.9339 46.1243 24.9301H47.2493C47.9429 24.9301 48.6083 24.6556 49.1002 24.1665C49.5921 23.6775 49.8704 23.0136 49.8743 22.3201V20.8201C49.8743 20.1225 49.5983 19.4532 49.1064 18.9586C48.6145 18.4639 47.9469 18.184 47.2493 18.1801H41.2493C40.5518 18.184 39.8841 18.4639 39.3923 18.9586C38.9004 19.4532 38.6243 20.1225 38.6243 20.8201V22.3201C38.6283 23.0136 38.9066 23.6775 39.3985 24.1665C39.8903 24.6556 40.5557 24.9301 41.2493 24.9301H42.3743C42.4751 24.9339 42.5705 24.9767 42.6405 25.0495C42.7104 25.1222 42.7494 25.2192 42.7493 25.3201V26.4301C42.7494 26.5309 42.7104 26.6279 42.6405 26.7007C42.5705 26.7734 42.4751 26.8162 42.3743 26.8201H34.1243C34.0235 26.8162 33.9281 26.7734 33.8582 26.7007C33.7883 26.6279 33.7493 26.5309 33.7493 26.4301V20.8201C33.7502 20.4781 33.6731 20.1405 33.524 19.8328C33.3749 19.5252 33.1576 19.2555 32.8886 19.0444C32.6196 18.8333 32.3061 18.6863 31.9718 18.6145C31.6375 18.5427 31.2913 18.548 30.9593 18.6301L26.4593 19.7551C25.9728 19.8753 25.5403 20.1546 25.2305 20.5487C24.9207 20.9427 24.7514 21.4288 24.7493 21.9301V26.4301C24.7505 26.5199 24.7193 26.6072 24.6615 26.6761C24.6037 26.7449 24.5231 26.7907 24.4343 26.8051C23.8911 26.8818 23.3946 27.1543 23.0383 27.5715C22.682 27.9886 22.4903 28.5215 22.4993 29.0701V36.3001C22.5127 36.3542 22.5127 36.4109 22.4993 36.4651L18.2393 44.9101C18.2337 44.9549 18.2337 45.0002 18.2393 45.0451C18.2104 45.098 18.1953 45.1573 18.1953 45.2176C18.1953 45.2778 18.2104 45.3371 18.2393 45.3901C18.2733 45.4433 18.3198 45.4876 18.3746 45.5189C18.4295 45.5503 18.4912 45.5678 18.5543 45.57H53.4743ZM45.7493 29.8201C46.1993 29.8201 46.5743 30.3151 46.5743 30.9301V33.1801C46.5743 33.8101 46.1993 34.3201 45.7493 34.3201H26.3243C25.8593 34.3201 25.4993 33.8101 25.4993 33.1801V30.9301C25.4993 30.3151 25.8593 29.8201 26.3243 29.8201H45.7493ZM30.7493 40.6951C30.7493 41.0929 30.5913 41.4744 30.31 41.7557C30.0287 42.037 29.6472 42.195 29.2493 42.195H27.7493C27.3515 42.195 26.97 42.037 26.6887 41.7557C26.4074 41.4744 26.2493 41.0929 26.2493 40.6951C26.2493 40.2972 26.4074 39.9157 26.6887 39.6344C26.97 39.3531 27.3515 39.1951 27.7493 39.1951H29.2493C29.4463 39.1951 29.6414 39.2339 29.8234 39.3092C30.0053 39.3846 30.1707 39.4951 30.31 39.6344C30.4493 39.7737 30.5598 39.939 30.6352 40.121C30.7105 40.303 30.7493 40.4981 30.7493 40.6951V40.6951ZM36.7493 42.195H35.2493C34.8515 42.195 34.47 42.037 34.1887 41.7557C33.9074 41.4744 33.7493 41.0929 33.7493 40.6951C33.7493 40.2972 33.9074 39.9157 34.1887 39.6344C34.47 39.3531 34.8515 39.1951 35.2493 39.1951H36.7493C37.1472 39.1951 37.5287 39.3531 37.81 39.6344C38.0913 39.9157 38.2493 40.2972 38.2493 40.6951C38.2493 41.0929 38.0913 41.4744 37.81 41.7557C37.5287 42.037 37.1472 42.195 36.7493 42.195ZM44.9993 42.195H43.4993C43.1015 42.195 42.72 42.037 42.4387 41.7557C42.1574 41.4744 41.9993 41.0929 41.9993 40.6951C41.9993 40.2972 42.1574 39.9157 42.4387 39.6344C42.72 39.3531 43.1015 39.1951 43.4993 39.1951H44.9993C45.3972 39.1951 45.7787 39.3531 46.06 39.6344C46.3413 39.9157 46.4993 40.2972 46.4993 40.6951C46.4993 41.0929 46.3413 41.4744 46.06 41.7557C45.7787 42.037 45.3972 42.195 44.9993 42.195ZM27.7493 22.8151C27.7613 22.7406 27.7946 22.6713 27.8452 22.6153C27.8958 22.5594 27.9615 22.5194 28.0343 22.5001L30.2843 21.9301C30.339 21.9158 30.3963 21.9152 30.4512 21.9283C30.5061 21.9414 30.557 21.9677 30.5993 22.0051C30.6432 22.0391 30.6793 22.0822 30.7051 22.1313C30.731 22.1805 30.7461 22.2346 30.7493 22.2901V26.4301C30.7494 26.5309 30.7104 26.6279 30.6405 26.7007C30.5705 26.7734 30.4751 26.8162 30.3743 26.8201H28.1243C28.0235 26.8162 27.9281 26.7734 27.8582 26.7007C27.7883 26.6279 27.7493 26.5309 27.7493 26.4301V22.8151Z" fill="white"/>
</svg>
