<svg width="128" height="128" viewBox="0 0 128 128" fill="none" xmlns="http://www.w3.org/2000/svg">
<rect width="128" height="128" rx="32" fill="#1E38DE"/>
<path d="M32.6667 83.6801C32.4944 83.6799 32.3287 83.7465 32.2044 83.8658C32.0802 83.9851 32.0069 84.1479 32 84.3201V91.6801C32 92.7409 32.4214 93.7583 33.1716 94.5085C33.9217 95.2586 34.9391 95.6801 36 95.6801H92C93.0609 95.6801 94.0783 95.2586 94.8284 94.5085C95.5786 93.7583 96 92.7409 96 91.6801V84.3201C95.9931 84.1479 95.9198 83.9851 95.7956 83.8658C95.6713 83.7465 95.5056 83.6799 95.3333 83.6801H32.6667ZM60 88.3201H68C68.5329 88.3271 69.0415 88.5437 69.4159 88.923C69.7902 89.3023 70 89.8138 70 90.3467C69.993 90.8725 69.7792 91.3744 69.4049 91.7437C69.0306 92.1131 68.5258 92.3201 68 92.3201H60C59.4742 92.3201 58.9694 92.1131 58.5951 91.7437C58.2208 91.3744 58.007 90.8725 58 90.3467C58 89.8138 58.2098 89.3023 58.5841 88.923C58.9585 88.5437 59.4671 88.3271 60 88.3201Z" fill="white"/>
<path d="M95.0659 81.0133C95.1782 81.0093 95.2878 80.9781 95.3854 80.9224C95.4829 80.8666 95.5655 80.788 95.6259 80.6933C95.6773 80.5992 95.7042 80.4938 95.7042 80.3866C95.7042 80.2794 95.6773 80.174 95.6259 80.0799C95.636 80.0003 95.636 79.9196 95.6259 79.8399L87.9992 64.8266C87.9755 64.7303 87.9755 64.6296 87.9992 64.5333V51.6799C87.9992 50.6191 87.5778 49.6017 86.8277 48.8515C86.0775 48.1014 85.0601 47.6799 83.9992 47.6799H81.9992C81.82 47.673 81.6504 47.597 81.5261 47.4677C81.4018 47.3384 81.3324 47.166 81.3326 46.9866V45.0133C81.3324 44.8339 81.4018 44.6615 81.5261 44.5322C81.6504 44.4029 81.82 44.3268 81.9992 44.3199H83.9992C85.2323 44.32 86.4153 43.832 87.2897 42.9626C88.1641 42.0931 88.6589 40.913 88.6659 39.6799V37.0133C88.6659 35.7731 88.1751 34.5834 87.3007 33.704C86.4263 32.8246 85.2394 32.327 83.9992 32.3199H73.3326C72.0925 32.327 70.9055 32.8246 70.0311 33.704C69.1567 34.5834 68.6659 35.7731 68.6659 37.0133V39.6799C68.673 40.913 69.1677 42.0931 70.0421 42.9626C70.9165 43.832 72.0995 44.32 73.3326 44.3199H75.3326C75.5118 44.3268 75.6814 44.4029 75.8057 44.5322C75.93 44.6615 75.9994 44.8339 75.9992 45.0133V46.9866C75.9994 47.166 75.93 47.3384 75.8057 47.4677C75.6814 47.597 75.5118 47.673 75.3326 47.6799H60.6659C60.4867 47.673 60.3171 47.597 60.1928 47.4677C60.0685 47.3384 59.9991 47.166 59.9992 46.9866V37.0133C60.0008 36.4054 59.8638 35.8052 59.5987 35.2582C59.3335 34.7113 58.9472 34.2319 58.4691 33.8566C57.9909 33.4813 57.4335 33.2199 56.8392 33.0922C56.2449 32.9646 55.6293 32.9741 55.0392 33.1199L47.0392 35.1199C46.1742 35.3338 45.4054 35.8303 44.8547 36.5308C44.304 37.2313 44.0029 38.0956 43.9992 38.9866V46.9866C44.0013 47.1464 43.9459 47.3016 43.8431 47.424C43.7403 47.5464 43.597 47.6277 43.4392 47.6533C42.4735 47.7897 41.5909 48.2742 40.9574 49.0158C40.3239 49.7573 39.9832 50.7048 39.9992 51.6799V64.5333C40.023 64.6296 40.023 64.7303 39.9992 64.8266L32.4259 79.8399C32.4159 79.9196 32.4159 80.0003 32.4259 80.0799C32.3746 80.174 32.3477 80.2794 32.3477 80.3866C32.3477 80.4938 32.3746 80.5992 32.4259 80.6933C32.4863 80.788 32.5689 80.8666 32.6664 80.9224C32.764 80.9781 32.8736 81.0093 32.9859 81.0133H95.0659ZM81.3326 53.0133C82.1326 53.0133 82.7992 53.8933 82.7992 54.9866V58.9866C82.7992 60.1066 82.1326 61.0133 81.3326 61.0133H46.7992C45.9726 61.0133 45.3326 60.1066 45.3326 58.9866V54.9866C45.3326 53.8933 45.9726 53.0133 46.7992 53.0133H81.3326ZM54.6659 72.3466C54.6659 73.0539 54.385 73.7321 53.8849 74.2322C53.3848 74.7323 52.7065 75.0133 51.9992 75.0133H49.3326C48.6253 75.0133 47.9471 74.7323 47.447 74.2322C46.9469 73.7321 46.6659 73.0539 46.6659 72.3466C46.6659 71.6394 46.9469 70.9611 47.447 70.461C47.9471 69.9609 48.6253 69.6799 49.3326 69.6799H51.9992C52.3494 69.6799 52.6962 69.7489 53.0197 69.8829C53.3433 70.0169 53.6372 70.2134 53.8849 70.461C54.1325 70.7086 54.3289 71.0026 54.4629 71.3261C54.5969 71.6497 54.6659 71.9964 54.6659 72.3466V72.3466ZM65.3326 75.0133H62.6659C61.9587 75.0133 61.2804 74.7323 60.7803 74.2322C60.2802 73.7321 59.9992 73.0539 59.9992 72.3466C59.9992 71.6394 60.2802 70.9611 60.7803 70.461C61.2804 69.9609 61.9587 69.6799 62.6659 69.6799H65.3326C66.0398 69.6799 66.7181 69.9609 67.2182 70.461C67.7183 70.9611 67.9992 71.6394 67.9992 72.3466C67.9992 73.0539 67.7183 73.7321 67.2182 74.2322C66.7181 74.7323 66.0398 75.0133 65.3326 75.0133ZM79.9992 75.0133H77.3326C76.6253 75.0133 75.9471 74.7323 75.447 74.2322C74.9469 73.7321 74.6659 73.0539 74.6659 72.3466C74.6659 71.6394 74.9469 70.9611 75.447 70.461C75.9471 69.9609 76.6253 69.6799 77.3326 69.6799H79.9992C80.7065 69.6799 81.3848 69.9609 81.8849 70.461C82.385 70.9611 82.6659 71.6394 82.6659 72.3466C82.6659 73.0539 82.385 73.7321 81.8849 74.2322C81.3848 74.7323 80.7065 75.0133 79.9992 75.0133ZM49.3326 40.5599C49.3539 40.4276 49.4131 40.3043 49.503 40.2049C49.5929 40.1055 49.7097 40.0343 49.8392 39.9999L53.8392 38.9866C53.9364 38.9613 54.0382 38.9603 54.1359 38.9835C54.2335 39.0067 54.3239 39.0536 54.3992 39.1199C54.4772 39.1805 54.5413 39.2571 54.5873 39.3445C54.6333 39.4318 54.6601 39.528 54.6659 39.6266V46.9866C54.666 47.166 54.5967 47.3384 54.4724 47.4677C54.348 47.597 54.1785 47.673 53.9992 47.6799H49.9992C49.82 47.673 49.6504 47.597 49.5261 47.4677C49.4018 47.3384 49.3324 47.166 49.3326 46.9866V40.5599Z" fill="white"/>
</svg>
